<svg preserveAspectRatio="none" width="100%" height="100%" overflow="visible" style="display: block;" viewBox="0 0 1698.88 1373" fill="none" xmlns="http://www.w3.org/2000/svg">
<g id="Vector" opacity="0.54" style="mix-blend-mode:overlay">
<path d="M1253.68 1.10457L1663.98 1.16026C1670.95 1.15407 1693.94 0.515292 1698.88 1.73597L1698.67 3.32186C1694.85 13.8152 1673.9 46.3401 1666.95 57.6258L1599.96 166.535L1319.58 620.811L1087.81 995.284L1032.41 1085.06C1029.64 1089.57 1012.56 1117.78 1010.15 1120.36C1004.73 1130.71 968.441 1191.94 962.078 1198.27C939.62 1237.4 913.424 1275.58 890.583 1314.6C887.327 1320.16 874.39 1342.3 870.465 1346.33C865.6 1354.96 859.608 1364.42 854.445 1373C849.666 1363.65 841.458 1350.93 835.875 1341.67C830.131 1335.09 815.141 1310.91 810.023 1302.51C800.836 1287.43 786.968 1267.76 778.824 1252.58C778.881 1246.5 745.431 1186.21 740.141 1174.79C734.049 1160.51 723.005 1141.74 715.778 1126.14C718.311 1118.58 708.384 1105.75 705.474 1095.2L707.229 1094.25C708.781 1088.33 708.992 1082.12 710.038 1075.96C713.498 1084.49 717.299 1093.46 720.427 1102.06L724.295 1102.92C727.761 1112.52 731.148 1122.24 735.099 1131.65C735.9 1125.65 728.676 1093.63 727.522 1084.27C724.493 1059.7 722.719 1031.3 725.546 1006.56C730.834 952.337 741.382 913.81 762.576 863.126C767.409 854.237 774.863 836.373 779.546 826.382C787.427 809.929 795.744 793.699 804.489 777.691C836.036 718.997 871.814 659.932 905.637 602.228C936.426 549.666 968.045 491.56 1000.29 440.559C1002.41 435.672 1011.96 420.229 1014.95 416.057C1019.36 405.8 1034.66 380.866 1040.89 370.178L1093.12 280.592L1253.68 1.10457Z" fill="white"/>
<path d="M1000.29 440.559C998.983 450.153 998.5 450.273 993.82 458.39C952.136 530.731 911.072 605.039 870.651 678.044L841.966 730.003C837.881 737.406 829.796 751.383 826.825 758.762C824.361 761.708 808.813 792.102 806.91 796.967C803.286 801.436 797.113 817.035 794.132 823.2C767.609 877.995 744.731 944.872 739.6 1006.08C737.784 1013.79 737.83 1023.1 737.54 1031.17L737.149 1035.88C730.398 1026.46 732.879 1021 729.681 1010.09C728.043 1009 728.829 1009.59 726.998 1007.92L725.546 1006.56C730.834 952.337 741.382 913.81 762.576 863.126C767.409 854.237 774.863 836.373 779.546 826.382C787.427 809.929 795.744 793.699 804.489 777.691C836.036 718.997 871.814 659.932 905.637 602.228C936.426 549.666 968.045 491.56 1000.29 440.559Z" fill="white"/>
<path d="M725.546 1006.56C730.834 952.337 741.382 913.81 762.576 863.126C762.496 875.296 758.177 884.544 754.504 895.871C743.07 931.117 723.699 995.915 737.54 1031.17L737.149 1035.88C730.398 1026.46 732.879 1021 729.681 1010.09C728.043 1009 728.829 1009.59 726.998 1007.92L725.546 1006.56Z" fill="white"/>
<path d="M725.546 1006.56L726.998 1007.92C728.829 1009.59 728.043 1009 729.681 1010.09C732.879 1021 730.398 1026.46 737.149 1035.88C736.625 1118.55 766.497 1197.51 801.288 1271.27C808.276 1286.09 828.472 1320.48 832.966 1333.32L835.875 1341.67C830.131 1335.09 815.141 1310.91 810.023 1302.51C800.836 1287.43 786.968 1267.76 778.824 1252.58C778.881 1246.5 745.431 1186.21 740.141 1174.79C734.049 1160.51 723.005 1141.74 715.778 1126.14C718.311 1118.58 708.384 1105.75 705.474 1095.2L707.229 1094.25C708.781 1088.33 708.992 1082.12 710.038 1075.96C713.498 1084.49 717.299 1093.46 720.427 1102.06L724.295 1102.92C727.761 1112.52 731.148 1122.24 735.099 1131.65C735.9 1125.65 728.676 1093.63 727.522 1084.27C724.493 1059.7 722.719 1031.3 725.546 1006.56Z" fill="white"/>
<path d="M0 0.413809C147.505 -0.92324 296.71 1.44133 444.554 1.05631L677.35 387.82L739.569 490.9C746.098 501.802 754.744 515.757 760.656 527.165C762.163 530.075 760.663 531.359 759.234 533.997C762.119 535.735 761.442 534.562 762.357 537.04C764.397 544.849 771.207 555.74 775.402 563.136C750.493 605.199 738.39 629.155 720.119 674.181C707.029 716.781 695.12 742.866 688.169 789.687C682 831.247 684.085 865.639 681.212 904.302C683.552 914.9 684.25 931.229 685.098 942.408C687.675 976.441 697.631 1008.07 704.197 1041.15C710.108 1060.48 716.871 1084.43 724.295 1102.92L720.427 1102.06C717.299 1093.46 713.498 1084.49 710.038 1075.96C708.992 1082.12 708.781 1088.33 707.229 1094.25L705.474 1095.2C708.384 1105.75 718.311 1118.58 715.778 1126.14C723.005 1141.74 734.049 1160.51 740.141 1174.79C745.431 1186.21 778.881 1246.5 778.824 1252.58C740.878 1194.28 702.662 1132.01 665.338 1072.93L312.207 506.213L85.1502 139.407C57.5897 94.2226 25.81 45.996 0 0.413809Z" fill="white"/>
<path d="M720.427 1102.06L724.295 1102.92C727.761 1112.52 731.148 1122.24 735.099 1131.65C736.794 1138.06 738.826 1143.2 741.168 1149.35C735.566 1146.67 723.084 1109.43 720.427 1102.06Z" fill="var(--fill-0, #616161)"/>
<path d="M664.967 742.705C666.898 740.415 669.109 736.812 671.358 736.354L672.673 738.397C680.07 749.799 686.18 750.987 690.919 757.301C688.865 767.156 686.597 779.759 683.764 789.192C680.247 778.904 688.242 773.432 684.559 767.057C679.432 764.878 668.214 759.542 663.638 760.928C662.42 765.893 661.737 767.849 659.752 772.566L658.963 771.724C658.261 764.358 662.058 749.502 664.967 742.705Z" fill="var(--fill-0, #616161)"/>
<path d="M676.408 910.034C677.74 899.375 677.804 893.556 677.712 882.711C678.782 889.446 678.831 898.248 681.212 904.302C683.552 914.9 684.25 931.229 685.098 942.408C687.675 976.441 697.631 1008.07 704.197 1041.15L702.373 1041.11C697.979 1038.25 697.472 1033.34 695.829 1027.78L688.704 998.998C684.661 980.848 681.942 962.513 679.162 944.129C677.88 932.43 676.595 921.857 676.408 910.034Z" fill="var(--fill-0, #616161)"/>
<path d="M684.381 681.201L686.002 682.488L687.026 681.028C704.371 689.285 709.836 693.024 704.692 711.161L703.35 711.854L702.122 709.935C697.544 706.902 696.564 706.716 691.094 707.125C681.271 695.166 685.019 701.566 679.401 701.962C681.056 696.366 681.793 693.779 681.837 687.973C682.112 686.19 683.621 683.021 684.381 681.201Z" fill="var(--fill-0, #616161)"/>
<path d="M705.474 1095.2L707.229 1094.25C708.781 1088.33 708.992 1082.12 710.038 1075.96C713.498 1084.49 717.299 1093.46 720.427 1102.06L724.295 1102.92C727.761 1112.52 731.148 1122.24 735.099 1131.65C736.794 1138.06 738.826 1143.2 741.168 1149.35C745.212 1155.66 759.887 1190.25 760.703 1197.23C758.552 1195.84 757.531 1195.32 755.063 1194.65C750.158 1185.63 748.369 1181.28 740.141 1174.79C734.049 1160.51 723.005 1141.74 715.778 1126.14C718.311 1118.58 708.384 1105.75 705.474 1095.2Z" fill="var(--fill-0, #616161)"/>
<path d="M773.37 1244.21L740.009 1174.46L728.889 1145.14L715.747 1094.59L734.955 1129.98V1134.02C748.771 1165.02 779.234 1232.89 790.556 1256.34C801.879 1279.8 824.928 1322.05 835.038 1340.25L829.983 1334.19C822.57 1322.39 805.114 1294.76 794.6 1278.58C784.086 1262.41 776.066 1248.93 773.37 1244.21Z" fill="var(--fill-0, #616161)"/>
<path d="M759.234 533.997C762.119 535.735 761.442 534.562 762.357 537.04C764.397 544.849 771.207 555.74 775.402 563.136C750.493 605.199 738.39 629.155 720.119 674.181C707.029 716.781 695.12 742.866 688.169 789.687C682 831.247 684.085 865.639 681.212 904.302C678.831 898.248 678.782 889.446 677.712 882.711C677.804 893.556 677.74 899.375 676.408 910.034C676.595 921.857 677.88 932.43 679.162 944.129C676.727 958.255 675.08 952.436 664.741 960.904C662.821 961.659 661.66 961.325 659.597 961.263L658.77 965.373C653.116 965.485 654.269 940.663 649.66 937.184C648.465 933.569 647.187 924.717 646.638 920.743C627.283 780.86 677.126 645.162 759.234 533.997Z" fill="var(--fill-0, #616161)"/>
<path d="M695.456 654.472C696.288 651.315 702.818 637.648 704.444 634.293C713.426 616.069 723.309 598.302 734.059 581.063C743.251 566.582 753.962 551.757 762.357 537.04C764.397 544.849 771.207 555.74 775.402 563.136C750.493 605.199 738.39 629.155 720.119 674.181C713.06 678.948 718.341 678.452 713.039 685.001C702.019 668.524 698.549 675.11 692.387 667.731C693.33 663.126 694.304 659.028 695.456 654.472Z" fill="var(--fill-0, #616161)"/>
<path d="M684.381 681.201C687.799 672.238 691.105 662.99 695.456 654.472C694.304 659.028 693.33 663.126 692.387 667.731C698.549 675.11 702.019 668.524 713.039 685.001C718.341 678.452 713.06 678.948 720.119 674.181C707.029 716.781 695.12 742.866 688.169 789.687C682 831.247 684.085 865.639 681.212 904.302C678.831 898.248 678.782 889.446 677.712 882.711C677.804 893.556 677.74 899.375 676.408 910.034C671.025 882.885 679.704 817.097 683.764 789.192C686.597 779.759 688.865 767.156 690.919 757.301C694.631 742.816 698.699 725.843 703.35 711.854L702.122 709.935C697.544 706.902 696.564 706.716 691.094 707.125C681.271 695.166 685.019 701.566 679.401 701.962C681.056 696.366 681.793 693.779 681.837 687.973C682.112 686.19 683.621 683.021 684.381 681.201Z" fill="var(--fill-0, #616161)"/>
<path d="M681.837 687.973C681.793 693.779 681.056 696.366 679.401 701.962C685.019 701.566 681.271 695.166 691.094 707.125C696.564 706.716 697.544 706.902 702.122 709.935L703.35 711.854C698.699 725.843 694.631 742.816 690.919 757.301C686.18 750.987 680.07 749.799 672.673 738.397L671.358 736.354C669.109 736.812 666.898 740.415 664.967 742.705C668.148 725.658 675.474 703.906 681.837 687.973Z" fill="var(--fill-0, #616161)"/>
<path d="M676.408 910.034C677.74 899.375 677.804 893.556 677.712 882.711C678.782 889.446 678.831 898.248 681.212 904.302C683.552 914.9 684.25 931.229 685.098 942.408C687.675 976.441 697.631 1008.07 704.197 1041.15C710.108 1060.48 716.871 1084.43 724.295 1102.92L720.427 1102.06C717.299 1093.46 713.498 1084.49 710.038 1075.96C708.992 1082.12 708.781 1088.33 707.229 1094.25L705.474 1095.2C708.384 1105.75 718.311 1118.58 715.778 1126.14C690.393 1077.4 657.594 991.867 649.66 937.184C654.269 940.663 653.116 965.485 658.77 965.373L659.597 961.263C661.66 961.325 662.821 961.659 664.741 960.904C675.08 952.436 676.727 958.255 679.162 944.129C677.88 932.43 676.595 921.857 676.408 910.034Z" fill="var(--fill-0, #616161)"/>
<path d="M676.408 910.034C677.74 899.375 677.804 893.556 677.712 882.711C678.782 889.446 678.831 898.248 681.212 904.302C683.552 914.9 684.25 931.229 685.098 942.408C687.675 976.441 697.631 1008.07 704.197 1041.15L702.373 1041.11C697.979 1038.25 697.472 1033.34 695.829 1027.78L688.704 998.998C684.169 1001.29 675.636 1004.98 672.785 1008.8C669.527 998.936 665.565 988.846 662.732 978.917C660.387 970.697 660.667 967.936 664.741 960.904C675.08 952.436 676.727 958.255 679.162 944.129C677.88 932.43 676.595 921.857 676.408 910.034Z" fill="var(--fill-0, #616161)"/>
<path d="M684.86 1043.83C685.369 1039.68 684.985 1040.84 684.52 1036.91C683.852 1031.46 685.404 1025.96 688.824 1021.65L690.712 1021.52L694.483 1029.58L695.829 1027.78C697.472 1033.34 697.979 1038.25 702.373 1041.11L704.197 1041.15C710.108 1060.48 716.871 1084.43 724.295 1102.92L720.427 1102.06C717.299 1093.46 713.498 1084.49 710.038 1075.96C708.992 1082.12 708.781 1088.33 707.229 1094.25L705.474 1095.2L684.86 1043.83Z" fill="var(--fill-0, #616161)"/>
<path d="M672.785 1008.8C675.636 1004.98 684.169 1001.29 688.704 998.998L695.829 1027.78L694.483 1029.58L690.712 1021.52L688.824 1021.65C685.404 1025.96 683.852 1031.46 684.52 1036.91C684.985 1040.84 685.369 1039.68 684.86 1043.83C680.762 1033.58 676.434 1019.51 672.785 1008.8Z" fill="var(--fill-0, #616161)"/>
</g>
</svg>
