<svg preserveAspectRatio="none" width="100%" height="100%" overflow="visible" style="display: block;" viewBox="0 0 241.943 195.534" fill="none" xmlns="http://www.w3.org/2000/svg">
<g id="Logotipo">
<g id="Vector">
<path d="M178.541 0.157306L236.973 0.165237C237.966 0.164356 241.24 0.0733846 241.943 0.247226L241.913 0.473079C241.37 1.96748 238.386 6.59947 237.396 8.2067L227.856 23.7168L187.926 88.4119L154.919 141.742L147.029 154.528C146.634 155.17 144.203 159.188 143.859 159.554C143.087 161.028 137.919 169.749 137.013 170.65C133.815 176.223 130.084 181.66 126.831 187.217C126.367 188.009 124.525 191.161 123.966 191.736C123.273 192.965 122.42 194.312 121.685 195.534C121.004 194.203 119.835 192.39 119.04 191.072C118.222 190.135 116.087 186.692 115.358 185.495C114.05 183.347 112.075 180.546 110.915 178.384C110.923 177.519 106.16 168.932 105.406 167.307C104.539 165.272 102.966 162.599 101.937 160.378C102.297 159.301 100.883 157.474 100.469 155.972L100.719 155.836C100.94 154.993 100.97 154.108 101.119 153.232C101.612 154.447 102.153 155.723 102.599 156.949L103.149 157.07C103.643 158.438 104.125 159.822 104.688 161.162C104.802 160.307 103.773 155.748 103.609 154.415C103.178 150.915 102.925 146.871 103.328 143.348C104.081 135.626 105.583 130.139 108.601 122.921C109.29 121.655 110.351 119.111 111.018 117.688C112.14 115.345 113.325 113.034 114.57 110.754C119.063 102.395 124.158 93.9833 128.975 85.7655C133.36 78.2799 137.863 70.0049 142.456 62.7416C142.757 62.0456 144.116 59.8463 144.543 59.2521C145.171 57.7914 147.35 54.2405 148.237 52.7184L155.675 39.9602L178.541 0.157306Z" fill="#D4D4D5"/>
<path d="M142.456 62.7416C142.269 64.1079 142.2 64.125 141.534 65.281C135.597 75.5833 129.749 86.1657 123.993 96.5627L119.907 103.962C119.326 105.017 118.174 107.007 117.751 108.058C117.4 108.478 115.186 112.806 114.915 113.499C114.399 114.135 113.52 116.357 113.095 117.235C109.318 125.038 106.06 134.563 105.329 143.279C105.07 144.378 105.077 145.704 105.036 146.853L104.98 147.523C104.019 146.181 104.372 145.404 103.917 143.851C103.683 143.695 103.795 143.78 103.534 143.542L103.328 143.348C104.081 135.626 105.583 130.139 108.601 122.921C109.29 121.655 110.351 119.111 111.018 117.688C112.14 115.345 113.325 113.034 114.57 110.754C119.063 102.395 124.158 93.9833 128.975 85.7655C133.36 78.2799 137.863 70.0049 142.456 62.7416Z" fill="#E4E3E4"/>
<path d="M103.328 143.348C104.081 135.626 105.583 130.139 108.601 122.921C108.59 124.654 107.975 125.971 107.452 127.584C105.823 132.604 103.065 141.832 105.036 146.853L104.98 147.523C104.019 146.181 104.372 145.404 103.917 143.851C103.683 143.695 103.795 143.78 103.534 143.542L103.328 143.348Z" fill="#E4E3E4"/>
<path d="M103.328 143.348L103.534 143.542C103.795 143.78 103.683 143.695 103.917 143.851C104.372 145.404 104.019 146.181 104.98 147.523C104.905 159.297 109.16 170.542 114.114 181.047C115.11 183.157 117.986 188.055 118.626 189.883L119.04 191.072C118.222 190.135 116.087 186.692 115.358 185.495C114.05 183.347 112.075 180.546 110.915 178.384C110.923 177.519 106.16 168.932 105.406 167.307C104.539 165.272 102.966 162.599 101.937 160.378C102.297 159.301 100.883 157.474 100.469 155.972L100.719 155.836C100.94 154.993 100.97 154.108 101.119 153.232C101.612 154.447 102.153 155.723 102.599 156.949L103.149 157.07C103.643 158.438 104.125 159.822 104.688 161.162C104.802 160.307 103.773 155.748 103.609 154.415C103.178 150.915 102.925 146.871 103.328 143.348Z" fill="#E4E3E4"/>
<path d="M0 0.0589321C21.0067 -0.131482 42.2555 0.205266 63.3105 0.150433L96.4639 55.2309L105.325 69.9109C106.255 71.4635 107.486 73.4508 108.328 75.0755C108.542 75.4899 108.329 75.6727 108.125 76.0484C108.536 76.2959 108.44 76.129 108.57 76.4818C108.861 77.5939 109.83 79.1449 110.428 80.1982C106.88 86.1887 105.157 89.6002 102.555 96.0126C100.691 102.079 98.9945 105.794 98.0047 112.462C97.1261 118.381 97.4231 123.279 97.0138 128.785C97.3471 130.294 97.4465 132.62 97.5673 134.212C97.9343 139.059 99.3522 143.563 100.287 148.274C101.129 151.026 102.092 154.438 103.149 157.07L102.599 156.949C102.153 155.723 101.612 154.447 101.119 153.232C100.97 154.108 100.94 154.993 100.719 155.836L100.469 155.972C100.883 157.474 102.297 159.301 101.937 160.378C102.966 162.599 104.539 165.272 105.406 167.307C106.16 168.932 110.923 177.519 110.915 178.384C105.511 170.082 100.069 161.214 94.7532 152.8L44.4626 72.0917L12.1266 19.8535C8.20156 13.4186 3.6757 6.55046 0 0.0589321Z" fill="#E2E2E3"/>
<path d="M102.599 156.949L103.149 157.07C103.643 158.438 104.125 159.822 104.688 161.162C104.929 162.076 105.219 162.807 105.552 163.684C104.755 163.301 102.977 157.998 102.599 156.949Z" fill="var(--fill-0, #50A8F2)"/>
<path d="M94.7004 105.771C94.9753 105.445 95.2902 104.932 95.6105 104.867L95.7978 105.158C96.8512 106.782 97.7213 106.951 98.3962 107.85C98.1037 109.253 97.7807 111.048 97.3773 112.392C96.8764 110.927 98.015 110.147 97.4905 109.239C96.7604 108.929 95.1627 108.169 94.5111 108.367C94.3376 109.074 94.2404 109.352 93.9576 110.024L93.8453 109.904C93.7454 108.855 94.2861 106.739 94.7004 105.771Z" fill="var(--fill-0, #50A8F2)"/>
<path d="M96.3298 129.601C96.5195 128.083 96.5285 127.255 96.5154 125.71C96.6677 126.669 96.6748 127.923 97.0138 128.785C97.3471 130.294 97.4465 132.62 97.5673 134.212C97.9343 139.059 99.3522 143.563 100.287 148.274L100.027 148.269C99.4018 147.862 99.3295 147.162 99.0955 146.37L98.0809 142.271C97.505 139.686 97.1179 137.075 96.7219 134.457C96.5394 132.791 96.3564 131.285 96.3298 129.601Z" fill="var(--fill-0, #50A8F2)"/>
<path d="M97.4652 97.0123L97.696 97.1956L97.8418 96.9876C100.312 98.1636 101.09 98.696 100.358 101.279L100.167 101.378L99.9917 101.104C99.3397 100.672 99.2003 100.646 98.4212 100.704C97.0223 99.001 97.556 99.9126 96.7559 99.969C96.9916 99.1721 97.0965 98.8036 97.1029 97.9767C97.142 97.7228 97.357 97.2715 97.4652 97.0123Z" fill="var(--fill-0, #50A8F2)"/>
<path d="M100.469 155.972L100.719 155.836C100.94 154.993 100.97 154.108 101.119 153.232C101.612 154.447 102.153 155.723 102.599 156.949L103.149 157.07C103.643 158.438 104.125 159.822 104.688 161.162C104.929 162.076 105.219 162.807 105.552 163.684C106.128 164.581 108.218 169.507 108.335 170.502C108.028 170.304 107.883 170.23 107.531 170.135C106.833 168.85 106.578 168.231 105.406 167.307C104.539 165.272 102.966 162.599 101.937 160.378C102.297 159.301 100.883 157.474 100.469 155.972Z" fill="var(--fill-0, #50A8F2)"/>
<path d="M110.138 177.193L105.387 167.259L103.804 163.084L101.932 155.885L104.668 160.924V161.5C106.635 165.915 110.974 175.58 112.586 178.92C114.198 182.261 117.481 188.279 118.921 190.87L118.201 190.006C117.145 188.327 114.659 184.391 113.162 182.088C111.665 179.784 110.522 177.865 110.138 177.193Z" fill="var(--fill-0, #50A8F2)"/>
<path d="M108.125 76.0484C108.536 76.2959 108.44 76.129 108.57 76.4818C108.861 77.5939 109.83 79.1449 110.428 80.1982C106.88 86.1887 105.157 89.6002 102.555 96.0126C100.691 102.079 98.9945 105.794 98.0047 112.462C97.1261 118.381 97.4231 123.279 97.0138 128.785C96.6748 127.923 96.6677 126.669 96.5154 125.71C96.5285 127.255 96.5195 128.083 96.3298 129.601C96.3564 131.285 96.5394 132.791 96.7219 134.457C96.3751 136.469 96.1405 135.64 94.6682 136.846C94.3947 136.953 94.2293 136.906 93.9356 136.897L93.8178 137.482C93.0126 137.498 93.1768 133.963 92.5204 133.468C92.3502 132.953 92.1683 131.692 92.09 131.126C89.3336 111.205 96.432 91.8799 108.125 76.0484Z" fill="var(--fill-0, #50A8F2)"/>
<path d="M99.0425 93.2058C99.161 92.7562 100.091 90.8097 100.322 90.3319C101.602 87.7367 103.009 85.2064 104.54 82.7513C105.849 80.689 107.374 78.5777 108.57 76.4818C108.861 77.5939 109.83 79.1449 110.428 80.1982C106.88 86.1887 105.157 89.6002 102.555 96.0126C101.549 96.6914 102.302 96.6209 101.546 97.5535C99.9771 95.2069 99.4829 96.1448 98.6054 95.094C98.7396 94.4382 98.8783 93.8546 99.0425 93.2058Z" fill="var(--fill-0, #50A8F2)"/>
<path d="M97.4652 97.0123C97.952 95.7358 98.4228 94.4188 99.0425 93.2058C98.8783 93.8546 98.7396 94.4382 98.6054 95.094C99.4829 96.1448 99.9771 95.2069 101.546 97.5535C102.302 96.6209 101.549 96.6914 102.555 96.0126C100.691 102.079 98.9945 105.794 98.0047 112.462C97.1261 118.381 97.4231 123.279 97.0138 128.785C96.6748 127.923 96.6677 126.669 96.5154 125.71C96.5285 127.255 96.5195 128.083 96.3298 129.601C95.5632 125.735 96.799 116.366 97.3773 112.392C97.7807 111.048 98.1037 109.253 98.3962 107.85C98.925 105.787 99.5042 103.37 100.167 101.378L99.9917 101.104C99.3397 100.672 99.2003 100.646 98.4212 100.704C97.0223 99.001 97.556 99.9126 96.7559 99.969C96.9916 99.1721 97.0965 98.8036 97.1029 97.9767C97.142 97.7228 97.357 97.2715 97.4652 97.0123Z" fill="var(--fill-0, #50A8F2)"/>
<path d="M97.1029 97.9767C97.0965 98.8036 96.9916 99.1721 96.7559 99.969C97.556 99.9126 97.0223 99.001 98.4212 100.704C99.2003 100.646 99.3397 100.672 99.9917 101.104L100.167 101.378C99.5042 103.37 98.925 105.787 98.3962 107.85C97.7213 106.951 96.8512 106.782 95.7978 105.158L95.6105 104.867C95.2902 104.932 94.9753 105.445 94.7004 105.771C95.1534 103.344 96.1967 100.246 97.1029 97.9767Z" fill="var(--fill-0, #50A8F2)"/>
<path d="M96.3298 129.601C96.5195 128.083 96.5285 127.255 96.5154 125.71C96.6677 126.669 96.6748 127.923 97.0138 128.785C97.3471 130.294 97.4465 132.62 97.5673 134.212C97.9343 139.059 99.3522 143.563 100.287 148.274C101.129 151.026 102.092 154.438 103.149 157.07L102.599 156.949C102.153 155.723 101.612 154.447 101.119 153.232C100.97 154.108 100.94 154.993 100.719 155.836L100.469 155.972C100.883 157.474 102.297 159.301 101.937 160.378C98.3214 153.437 93.6503 141.255 92.5204 133.468C93.1768 133.963 93.0126 137.498 93.8178 137.482L93.9356 136.897C94.2293 136.906 94.3947 136.953 94.6682 136.846C96.1405 135.64 96.3751 136.469 96.7219 134.457C96.5394 132.791 96.3564 131.285 96.3298 129.601Z" fill="var(--fill-0, #50A8F2)"/>
<path d="M96.3298 129.601C96.5195 128.083 96.5285 127.255 96.5154 125.71C96.6677 126.669 96.6748 127.923 97.0138 128.785C97.3471 130.294 97.4465 132.62 97.5673 134.212C97.9343 139.059 99.3522 143.563 100.287 148.274L100.027 148.269C99.4018 147.862 99.3295 147.162 99.0955 146.37L98.0809 142.271C97.435 142.597 96.2197 143.122 95.8137 143.667C95.3498 142.262 94.7855 140.825 94.3821 139.411C94.0481 138.24 94.0879 137.847 94.6682 136.846C96.1405 135.64 96.3751 136.469 96.7219 134.457C96.5394 132.791 96.3564 131.285 96.3298 129.601Z" fill="var(--fill-0, #50A8F2)"/>
<path d="M97.5334 148.655C97.6059 148.064 97.5512 148.23 97.4849 147.669C97.3899 146.894 97.6108 146.111 98.098 145.497L98.3668 145.478L98.9039 146.626L99.0955 146.37C99.3295 147.162 99.4018 147.862 100.027 148.269L100.287 148.274C101.129 151.026 102.092 154.438 103.149 157.07L102.599 156.949C102.153 155.723 101.612 154.447 101.119 153.232C100.97 154.108 100.94 154.993 100.719 155.836L100.469 155.972L97.5334 148.655Z" fill="var(--fill-0, #50A8F2)"/>
<path d="M95.8137 143.667C96.2197 143.122 97.435 142.597 98.0809 142.271L99.0955 146.37L98.9039 146.626L98.3668 145.478L98.098 145.497C97.6108 146.111 97.3899 146.894 97.4849 147.669C97.5512 148.23 97.6059 148.064 97.5334 148.655C96.9498 147.195 96.3335 145.192 95.8137 143.667Z" fill="var(--fill-0, #50A8F2)"/>
</g>
</g>
</svg>
