<svg preserveAspectRatio="none" width="100%" height="100%" overflow="visible" style="display: block;" viewBox="0 0 66 55" fill="none" xmlns="http://www.w3.org/2000/svg">
<g id="Vector">
<path d="M48.7043 0.0442472L64.6442 0.0464781C64.915 0.0462301 65.8081 0.0206417 66 0.0695399L65.9918 0.133068C65.8437 0.553414 65.0294 1.85631 64.7596 2.30839L62.1572 6.67109L51.2645 24.8686L42.2605 39.8693L40.1082 43.4658C40.0005 43.6463 39.3372 44.7765 39.2435 44.8797C39.0328 45.2943 37.6231 47.7471 37.3759 48.0005C36.5035 49.5681 35.4858 51.0976 34.5984 52.6607C34.4719 52.8834 33.9693 53.7701 33.8168 53.9318C33.6278 54.2774 33.395 54.6563 33.1945 55C33.0088 54.6256 32.69 54.1158 32.473 53.7448C32.2499 53.4815 31.6675 52.5129 31.4687 52.1762C31.1118 51.5722 30.573 50.7841 30.2567 50.1761C30.2589 49.9326 28.9594 47.5175 28.7539 47.0602C28.5172 46.4879 28.0881 45.7361 27.8074 45.1113C27.9058 44.8082 27.5201 44.2945 27.4071 43.8719L27.4752 43.8338C27.5356 43.5967 27.5437 43.3478 27.5844 43.1013C27.7188 43.443 27.8664 43.802 27.988 44.1467L28.1382 44.1809C28.2729 44.5657 28.4045 44.955 28.558 45.3319C28.5891 45.0914 28.3084 43.809 28.2636 43.434C28.1459 42.4496 28.077 41.312 28.1869 40.3211C28.3923 38.149 28.8021 36.6057 29.6254 34.5753C29.8132 34.2193 30.1028 33.5036 30.2847 33.1034C30.5909 32.4443 30.914 31.7942 31.2537 31.153C32.4793 28.8018 33.8693 26.4357 35.1832 24.1242C36.3794 22.0187 37.6077 19.691 38.8606 17.648C38.9429 17.4522 39.3137 16.8336 39.4301 16.6665C39.6013 16.2556 40.1957 15.2568 40.4377 14.8287L42.4668 11.24L48.7043 0.0442472Z" fill="#D4D4D5"/>
<path d="M38.8606 17.648C38.8096 18.0323 38.7909 18.0371 38.6091 18.3623C36.9897 21.2602 35.3944 24.2368 33.824 27.1613L32.7097 29.2427C32.551 29.5392 32.2369 30.0991 32.1215 30.3947C32.0257 30.5127 31.4217 31.7302 31.3478 31.9251C31.207 32.1041 30.9672 32.729 30.8514 32.976C29.821 35.1709 28.9322 37.8499 28.7328 40.3018C28.6623 40.6107 28.6641 40.9837 28.6528 41.307L28.6376 41.4955C28.3753 41.1181 28.4717 40.8994 28.3475 40.4625C28.2839 40.4188 28.3144 40.4426 28.2433 40.3757L28.1869 40.3211C28.3923 38.149 28.8021 36.6057 29.6254 34.5753C29.8132 34.2193 30.1028 33.5036 30.2847 33.1034C30.5909 32.4443 30.914 31.7942 31.2537 31.153C32.4793 28.8018 33.8693 26.4357 35.1832 24.1242C36.3794 22.0187 37.6077 19.691 38.8606 17.648Z" fill="#E4E3E4"/>
<path d="M28.1869 40.3211C28.3923 38.149 28.8021 36.6057 29.6254 34.5753C29.6223 35.0628 29.4546 35.4333 29.3119 35.8871C28.8676 37.299 28.1151 39.8946 28.6528 41.307L28.6376 41.4955C28.3753 41.1181 28.4717 40.8994 28.3475 40.4625C28.2839 40.4188 28.3144 40.4426 28.2433 40.3757L28.1869 40.3211Z" fill="#E4E3E4"/>
<path d="M28.1869 40.3211L28.2433 40.3757C28.3144 40.4426 28.2839 40.4188 28.3475 40.4625C28.4717 40.8994 28.3753 41.1181 28.6376 41.4955C28.6173 44.8073 29.7778 47.9703 31.1293 50.925C31.4008 51.5186 32.1854 52.8963 32.36 53.4106L32.473 53.7448C32.2499 53.4815 31.6675 52.5129 31.4687 52.1762C31.1118 51.5722 30.573 50.7841 30.2567 50.1761C30.2589 49.9326 28.9594 47.5175 28.7539 47.0602C28.5172 46.4879 28.0881 45.7361 27.8074 45.1113C27.9058 44.8082 27.5201 44.2945 27.4071 43.8719L27.4752 43.8338C27.5356 43.5967 27.5437 43.3478 27.5844 43.1013C27.7188 43.443 27.8664 43.802 27.988 44.1467L28.1382 44.1809C28.2729 44.5657 28.4045 44.955 28.558 45.3319C28.5891 45.0914 28.3084 43.809 28.2636 43.434C28.1459 42.4496 28.077 41.312 28.1869 40.3211Z" fill="#E4E3E4"/>
<path d="M0 0.0165765C5.73045 -0.0369834 11.5269 0.0577373 17.2705 0.0423141L26.3145 15.5354L28.7316 19.6646C28.9853 20.1013 29.3212 20.6603 29.5508 21.1173C29.6094 21.2339 29.5511 21.2853 29.4956 21.391C29.6077 21.4606 29.5814 21.4136 29.6169 21.5129C29.6962 21.8257 29.9608 22.262 30.1237 22.5582C29.156 24.2432 28.6858 25.2029 27.976 27.0065C27.4675 28.713 27.0048 29.7579 26.7348 31.6335C26.4951 33.2983 26.5761 34.676 26.4645 36.2248C26.5554 36.6493 26.5825 37.3034 26.6155 37.7512C26.7156 39.1145 27.1024 40.3816 27.3574 41.7067C27.5871 42.4809 27.8499 43.4405 28.1382 44.1809L27.988 44.1467C27.8664 43.802 27.7188 43.443 27.5844 43.1013C27.5437 43.3478 27.5356 43.5967 27.4752 43.8338L27.4071 43.8719C27.5201 44.2945 27.9058 44.8082 27.8074 45.1113C28.0881 45.7361 28.5172 46.4879 28.7539 47.0602C28.9594 47.5175 30.2589 49.9326 30.2567 50.1761C28.7825 47.8408 27.2978 45.3463 25.8478 42.9798L12.129 20.278L3.30801 5.58442C2.23731 3.77439 1.0027 1.84252 0 0.0165765Z" fill="#E2E2E3"/>
<path d="M27.988 44.1467L28.1382 44.1809C28.2729 44.5657 28.4045 44.955 28.558 45.3319C28.6238 45.5888 28.7028 45.7946 28.7938 46.0411C28.5761 45.9335 28.0912 44.4418 27.988 44.1467Z" fill="var(--fill-0, #50A8F2)"/>
<path d="M25.8334 29.7515C25.9084 29.6597 25.9943 29.5154 26.0817 29.4971L26.1328 29.5789C26.4201 30.0356 26.6575 30.0832 26.8416 30.3362C26.7618 30.7309 26.6737 31.2358 26.5637 31.6137C26.427 31.2016 26.7376 30.9824 26.5945 30.727C26.3954 30.6397 25.9595 30.4259 25.7818 30.4815C25.7344 30.6803 25.7079 30.7587 25.6308 30.9476L25.6002 30.9139C25.5729 30.6188 25.7204 30.0237 25.8334 29.7515Z" fill="var(--fill-0, #50A8F2)"/>
<path d="M26.2779 36.4544C26.3296 36.0274 26.3321 35.7943 26.3285 35.3599C26.3701 35.6297 26.372 35.9823 26.4645 36.2248C26.5554 36.6493 26.5825 37.3034 26.6155 37.7512C26.7156 39.1145 27.1024 40.3816 27.3574 41.7067L27.2866 41.7052C27.1159 41.5907 27.0962 41.3938 27.0324 41.1711L26.7556 40.0181C26.5985 39.2911 26.4929 38.5566 26.3849 37.8202C26.3351 37.3515 26.2852 36.928 26.2779 36.4544Z" fill="var(--fill-0, #50A8F2)"/>
<path d="M26.5876 27.2877L26.6506 27.3393L26.6904 27.2808C27.3642 27.6116 27.5765 27.7613 27.3767 28.4879L27.3246 28.5156L27.2768 28.4388C27.099 28.3173 27.0609 28.3098 26.8484 28.3262C26.4668 27.8471 26.6124 28.1035 26.3941 28.1194C26.4584 27.8952 26.4871 27.7916 26.4888 27.559C26.4995 27.4876 26.5581 27.3606 26.5876 27.2877Z" fill="var(--fill-0, #50A8F2)"/>
<path d="M27.4071 43.8719L27.4752 43.8338C27.5356 43.5967 27.5437 43.3478 27.5844 43.1013C27.7188 43.443 27.8664 43.802 27.988 44.1467L28.1382 44.1809C28.2729 44.5657 28.4045 44.955 28.558 45.3319C28.6238 45.5888 28.7028 45.7946 28.7938 46.0411C28.9508 46.2935 29.521 47.6792 29.5527 47.9589C29.4691 47.9033 29.4295 47.8825 29.3336 47.8557C29.143 47.4942 29.0735 47.3201 28.7539 47.0602C28.5172 46.4879 28.0881 45.7361 27.8074 45.1113C27.9058 44.8082 27.5201 44.2945 27.4071 43.8719Z" fill="var(--fill-0, #50A8F2)"/>
<path d="M30.0448 49.841L28.7487 47.0467L28.3167 45.8723L27.8062 43.8475L28.5524 45.2649V45.4269C29.0891 46.6688 30.2726 49.3874 30.7125 50.327C31.1523 51.2665 32.0478 52.9592 32.4405 53.6882L32.2441 53.4452C31.9561 52.9727 31.278 51.8658 30.8695 51.2179C30.4611 50.5699 30.1495 50.03 30.0448 49.841Z" fill="var(--fill-0, #50A8F2)"/>
<path d="M29.4956 21.391C29.6077 21.4606 29.5814 21.4136 29.6169 21.5129C29.6962 21.8257 29.9608 22.262 30.1237 22.5582C29.156 24.2432 28.6858 25.2029 27.976 27.0065C27.4675 28.713 27.0048 29.7579 26.7348 31.6335C26.4951 33.2983 26.5761 34.676 26.4645 36.2248C26.372 35.9823 26.3701 35.6297 26.3285 35.3599C26.3321 35.7943 26.3296 36.0274 26.2779 36.4544C26.2852 36.928 26.3351 37.3515 26.3849 37.8202C26.2903 38.386 26.2263 38.1529 25.8246 38.4921C25.75 38.5224 25.7049 38.509 25.6248 38.5065L25.5927 38.6712C25.373 38.6756 25.4178 37.6813 25.2387 37.542C25.1923 37.3971 25.1427 37.0426 25.1213 36.8834C24.3694 31.2799 26.3058 25.8441 29.4956 21.391Z" fill="var(--fill-0, #50A8F2)"/>
<path d="M27.0179 26.217C27.0502 26.0906 27.3039 25.5431 27.3671 25.4087C27.716 24.6787 28.1 23.967 28.5176 23.2764C28.8747 22.6963 29.2908 22.1024 29.6169 21.5129C29.6962 21.8257 29.9608 22.262 30.1237 22.5582C29.156 24.2432 28.6858 25.2029 27.976 27.0065C27.7018 27.1975 27.9069 27.1776 27.701 27.44C27.2729 26.7799 27.138 27.0437 26.8987 26.7482C26.9353 26.5637 26.9731 26.3995 27.0179 26.217Z" fill="var(--fill-0, #50A8F2)"/>
<path d="M26.5876 27.2877C26.7204 26.9287 26.8488 26.5582 27.0179 26.217C26.9731 26.3995 26.9353 26.5637 26.8987 26.7482C27.138 27.0437 27.2729 26.7799 27.701 27.44C27.9069 27.1776 27.7018 27.1975 27.976 27.0065C27.4675 28.713 27.0048 29.7579 26.7348 31.6335C26.4951 33.2983 26.5761 34.676 26.4645 36.2248C26.372 35.9823 26.3701 35.6297 26.3285 35.3599C26.3321 35.7943 26.3296 36.0274 26.2779 36.4544C26.0688 35.3668 26.4059 32.7315 26.5637 31.6137C26.6737 31.2358 26.7618 30.7309 26.8416 30.3362C26.9858 29.7559 27.1439 29.076 27.3246 28.5156L27.2768 28.4388C27.099 28.3173 27.0609 28.3098 26.8484 28.3262C26.4668 27.8471 26.6124 28.1035 26.3941 28.1194C26.4584 27.8952 26.4871 27.7916 26.4888 27.559C26.4995 27.4876 26.5581 27.3606 26.5876 27.2877Z" fill="var(--fill-0, #50A8F2)"/>
<path d="M26.4888 27.559C26.4871 27.7916 26.4584 27.8952 26.3941 28.1194C26.6124 28.1035 26.4668 27.8471 26.8484 28.3262C27.0609 28.3098 27.099 28.3173 27.2768 28.4388L27.3246 28.5156C27.1439 29.076 26.9858 29.7559 26.8416 30.3362C26.6575 30.0832 26.4201 30.0356 26.1328 29.5789L26.0817 29.4971C25.9943 29.5154 25.9084 29.6597 25.8334 29.7515C25.957 29.0686 26.2416 28.1972 26.4888 27.559Z" fill="var(--fill-0, #50A8F2)"/>
<path d="M26.2779 36.4544C26.3296 36.0274 26.3321 35.7943 26.3285 35.3599C26.3701 35.6297 26.372 35.9823 26.4645 36.2248C26.5554 36.6493 26.5825 37.3034 26.6155 37.7512C26.7156 39.1145 27.1024 40.3816 27.3574 41.7067C27.5871 42.4809 27.8499 43.4405 28.1382 44.1809L27.988 44.1467C27.8664 43.802 27.7188 43.443 27.5844 43.1013C27.5437 43.3478 27.5356 43.5967 27.4752 43.8338L27.4071 43.8719C27.5201 44.2945 27.9058 44.8082 27.8074 45.1113C26.8212 43.1588 25.547 39.7325 25.2387 37.542C25.4178 37.6813 25.373 38.6756 25.5927 38.6712L25.6248 38.5065C25.7049 38.509 25.75 38.5224 25.8246 38.4921C26.2263 38.1529 26.2903 38.386 26.3849 37.8202C26.3351 37.3515 26.2852 36.928 26.2779 36.4544Z" fill="var(--fill-0, #50A8F2)"/>
<path d="M26.2779 36.4544C26.3296 36.0274 26.3321 35.7943 26.3285 35.3599C26.3701 35.6297 26.372 35.9823 26.4645 36.2248C26.5554 36.6493 26.5825 37.3034 26.6155 37.7512C26.7156 39.1145 27.1024 40.3816 27.3574 41.7067L27.2866 41.7052C27.1159 41.5907 27.0962 41.3938 27.0324 41.1711L26.7556 40.0181C26.5794 40.1099 26.2479 40.2576 26.1371 40.4109C26.0106 40.0156 25.8566 39.6115 25.7466 39.2137C25.6555 38.8844 25.6663 38.7738 25.8246 38.4921C26.2263 38.1529 26.2903 38.386 26.3849 37.8202C26.3351 37.3515 26.2852 36.928 26.2779 36.4544Z" fill="var(--fill-0, #50A8F2)"/>
<path d="M26.6062 41.8138C26.626 41.6477 26.6111 41.6943 26.593 41.5366C26.5671 41.3184 26.6274 41.0982 26.7602 40.9257L26.8336 40.9202L26.9801 41.243L27.0324 41.1711C27.0962 41.3938 27.1159 41.5907 27.2866 41.7052L27.3574 41.7067C27.5871 42.4809 27.8499 43.4405 28.1382 44.1809L27.988 44.1467C27.8664 43.802 27.7188 43.443 27.5844 43.1013C27.5437 43.3478 27.5356 43.5967 27.4752 43.8338L27.4071 43.8719L26.6062 41.8138Z" fill="var(--fill-0, #50A8F2)"/>
<path d="M26.1371 40.4109C26.2479 40.2576 26.5794 40.1099 26.7556 40.0181L27.0324 41.1711L26.9801 41.243L26.8336 40.9202L26.7602 40.9257C26.6274 41.0982 26.5671 41.3184 26.593 41.5366C26.6111 41.6943 26.626 41.6477 26.6062 41.8138C26.447 41.4032 26.2789 40.8399 26.1371 40.4109Z" fill="var(--fill-0, #50A8F2)"/>
</g>
</svg>
