<svg preserveAspectRatio="none" width="100%" height="100%" overflow="visible" style="display: block;" viewBox="0 0 326.023 263.817" fill="none" xmlns="http://www.w3.org/2000/svg">
<g id="Vector" opacity="0.39">
<mask id="path-1-outside-1_0_6" maskUnits="userSpaceOnUse" x="-0.864078" y="-0.750067" width="327" height="265" fill="black">
<rect fill="white" x="-0.864078" y="-0.750067" width="327" height="265"/>
<path d="M240.123 1.4591L318.011 1.46965C319.334 1.46848 323.698 1.34751 324.636 1.57867L324.596 1.87898C323.872 3.86607 319.893 10.0252 318.575 12.1623L305.858 32.786L252.633 118.811L208.636 189.723L198.119 206.725C197.593 207.578 194.352 212.921 193.894 213.408C192.864 215.368 185.976 226.963 184.768 228.161C180.505 235.572 175.532 242.802 171.196 250.192C170.578 251.244 168.122 255.436 167.377 256.2C166.454 257.834 165.316 259.625 164.336 261.25C163.429 259.48 161.871 257.07 160.811 255.316C159.721 254.071 156.875 249.493 155.903 247.901C154.159 245.046 151.527 241.32 149.981 238.446C149.992 237.295 143.642 225.878 142.638 223.717C141.481 221.011 139.385 217.457 138.013 214.503C138.494 213.071 136.609 210.642 136.057 208.645L136.39 208.464C136.685 207.343 136.725 206.167 136.923 205.001C137.58 206.617 138.302 208.314 138.895 209.943L139.63 210.105C140.288 211.924 140.931 213.765 141.681 215.546C141.833 214.409 140.461 208.347 140.242 206.575C139.667 201.921 139.33 196.543 139.867 191.859C140.871 181.591 142.873 174.295 146.897 164.697C147.814 163.014 149.229 159.631 150.118 157.739C151.614 154.623 153.193 151.55 154.853 148.518C160.842 137.404 167.633 126.219 174.054 115.292C179.899 105.338 185.901 94.3349 192.023 84.677C192.425 83.7515 194.237 80.8271 194.806 80.037C195.642 78.0947 198.547 73.3732 199.729 71.3493L209.644 54.3847L240.123 1.4591Z"/>
<path d="M192.023 84.677C191.774 86.4937 191.682 86.5164 190.794 88.0536C182.881 101.752 175.086 115.824 167.413 129.649L161.967 139.488C161.192 140.89 159.657 143.537 159.093 144.934C158.625 145.492 155.674 151.247 155.313 152.169C154.625 153.015 153.453 155.969 152.887 157.136C147.852 167.513 143.509 180.177 142.535 191.767C142.19 193.228 142.199 194.991 142.144 196.52L142.07 197.41C140.788 195.626 141.259 194.592 140.652 192.527C140.341 192.321 140.49 192.433 140.143 192.117L139.867 191.859C140.871 181.591 142.873 174.295 146.897 164.697C147.814 163.014 149.229 159.631 150.118 157.739C151.614 154.623 153.193 151.55 154.853 148.518C160.842 137.404 167.633 126.219 174.054 115.292C179.899 105.338 185.901 94.3349 192.023 84.677Z"/>
<path d="M139.867 191.859C140.871 181.591 142.873 174.295 146.897 164.697C146.881 167.002 146.062 168.753 145.364 170.898C143.194 177.572 139.517 189.843 142.144 196.52L142.07 197.41C140.788 195.626 141.259 194.592 140.652 192.527C140.341 192.321 140.49 192.433 140.143 192.117L139.867 191.859Z"/>
<path d="M139.867 191.859L140.143 192.117C140.49 192.433 140.341 192.321 140.652 192.527C141.259 194.592 140.788 195.626 142.07 197.41C141.97 213.066 147.641 228.018 154.245 241.986C155.572 244.792 159.406 251.305 160.259 253.736L160.811 255.316C159.721 254.071 156.875 249.493 155.903 247.901C154.159 245.046 151.527 241.32 149.981 238.446C149.992 237.295 143.642 225.878 142.638 223.717C141.481 221.011 139.385 217.457 138.013 214.503C138.494 213.071 136.609 210.642 136.057 208.645L136.39 208.464C136.685 207.343 136.725 206.167 136.923 205.001C137.58 206.617 138.302 208.314 138.895 209.943L139.63 210.105C140.288 211.924 140.931 213.765 141.681 215.546C141.833 214.409 140.461 208.347 140.242 206.575C139.667 201.921 139.33 196.543 139.867 191.859Z"/>
<path d="M2.13592 1.32829C30.137 1.0751 58.4607 1.52287 86.5261 1.44996L130.718 74.69L142.529 94.2099C143.769 96.2744 145.41 98.917 146.532 101.077C146.818 101.628 146.534 101.871 146.262 102.371C146.81 102.7 146.681 102.478 146.855 102.947C147.242 104.426 148.535 106.488 149.331 107.889C144.603 115.854 142.305 120.391 138.837 128.917C136.352 136.984 134.091 141.924 132.772 150.79C131.601 158.66 131.997 165.173 131.451 172.494C131.895 174.501 132.028 177.593 132.189 179.71C132.678 186.155 134.568 192.145 135.814 198.409C136.937 202.069 138.22 206.605 139.63 210.105L138.895 209.943C138.302 208.314 137.58 206.617 136.923 205.001C136.725 206.167 136.685 207.343 136.39 208.464L136.057 208.645C136.609 210.642 138.494 213.071 138.013 214.503C139.385 217.457 141.481 221.011 142.638 223.717C143.642 225.878 149.992 237.295 149.981 238.446C142.778 227.407 135.523 215.614 128.438 204.427L61.4026 97.1097L18.3001 27.649C13.0682 19.0925 7.03546 9.96004 2.13592 1.32829Z"/>
<path d="M138.895 209.943L139.63 210.105C140.288 211.924 140.931 213.765 141.681 215.546C142.002 216.761 142.388 217.734 142.833 218.899C141.769 218.39 139.4 211.338 138.895 209.943Z"/>
<path d="M128.367 141.893C128.734 141.46 129.154 140.777 129.581 140.691L129.83 141.077C131.234 143.237 132.394 143.462 133.294 144.657C132.904 146.523 132.473 148.91 131.936 150.696C131.268 148.748 132.786 147.712 132.087 146.505C131.113 146.092 128.984 145.082 128.115 145.344C127.884 146.284 127.754 146.655 127.377 147.548L127.228 147.388C127.094 145.994 127.815 143.18 128.367 141.893Z"/>
<path d="M130.539 173.58C130.792 171.561 130.804 170.459 130.787 168.406C130.99 169.681 130.999 171.348 131.451 172.494C131.895 174.501 132.028 177.593 132.189 179.71C132.678 186.155 134.568 192.145 135.814 198.409L135.468 198.402C134.634 197.86 134.538 196.93 134.226 195.877L132.873 190.426C132.106 186.99 131.59 183.518 131.062 180.036C130.819 177.821 130.575 175.819 130.539 173.58Z"/>
<path d="M132.053 130.246L132.36 130.49L132.555 130.214C135.848 131.777 136.885 132.485 135.908 135.92L135.654 136.051L135.421 135.688C134.551 135.113 134.366 135.078 133.327 135.156C131.462 132.891 132.174 134.103 131.107 134.178C131.422 133.118 131.561 132.628 131.57 131.529C131.622 131.191 131.908 130.591 132.053 130.246Z"/>
<path d="M136.057 208.645L136.39 208.464C136.685 207.343 136.725 206.167 136.923 205.001C137.58 206.617 138.302 208.314 138.895 209.943L139.63 210.105C140.288 211.924 140.931 213.765 141.681 215.546C142.002 216.761 142.388 217.734 142.833 218.899C143.6 220.092 146.386 226.642 146.541 227.965C146.133 227.702 145.939 227.604 145.47 227.477C144.539 225.768 144.2 224.945 142.638 223.717C141.481 221.011 139.385 217.457 138.013 214.503C138.494 213.071 136.609 210.642 136.057 208.645Z"/>
<path d="M148.946 236.862L142.613 223.653L140.502 218.101L138.007 208.529L141.653 215.229V215.995C144.276 221.866 150.059 234.718 152.208 239.159C154.357 243.601 158.733 251.603 160.652 255.049L159.693 253.9C158.285 251.666 154.972 246.434 152.976 243.371C150.98 240.308 149.457 237.755 148.946 236.862Z"/>
<path d="M146.262 102.371C146.81 102.7 146.681 102.478 146.855 102.947C147.242 104.426 148.535 106.488 149.331 107.889C144.603 115.854 142.305 120.391 138.837 128.917C136.352 136.984 134.091 141.924 132.772 150.79C131.601 158.66 131.997 165.173 131.451 172.494C130.999 171.348 130.99 169.681 130.787 168.406C130.804 170.459 130.792 171.561 130.539 173.58C130.575 175.819 130.819 177.821 131.062 180.036C130.6 182.711 130.287 181.609 128.324 183.213C127.96 183.356 127.739 183.293 127.348 183.281L127.191 184.059C126.118 184.08 126.336 179.38 125.462 178.721C125.235 178.036 124.992 176.36 124.888 175.608C121.214 149.119 130.676 123.422 146.262 102.371Z"/>
<path d="M134.155 125.185C134.313 124.587 135.553 121.999 135.861 121.364C137.566 117.913 139.443 114.548 141.483 111.284C143.228 108.542 145.261 105.734 146.855 102.947C147.242 104.426 148.535 106.488 149.331 107.889C144.603 115.854 142.305 120.391 138.837 128.917C137.497 129.82 138.499 129.726 137.493 130.966C135.401 127.846 134.742 129.093 133.573 127.696C133.751 126.824 133.936 126.048 134.155 125.185Z"/>
<path d="M132.053 130.246C132.702 128.549 133.329 126.798 134.155 125.185C133.936 126.048 133.751 126.824 133.573 127.696C134.742 129.093 135.401 127.846 137.493 130.966C138.499 129.726 137.497 129.82 138.837 128.917C136.352 136.984 134.091 141.924 132.772 150.79C131.601 158.66 131.997 165.173 131.451 172.494C130.999 171.348 130.99 169.681 130.787 168.406C130.804 170.459 130.792 171.561 130.539 173.58C129.517 168.439 131.165 155.981 131.936 150.696C132.473 148.91 132.904 146.523 133.294 144.657C133.999 141.914 134.771 138.7 135.654 136.051L135.421 135.688C134.551 135.113 134.366 135.078 133.327 135.156C131.462 132.891 132.174 134.103 131.107 134.178C131.422 133.118 131.561 132.628 131.57 131.529C131.622 131.191 131.908 130.591 132.053 130.246Z"/>
<path d="M131.57 131.529C131.561 132.628 131.422 133.118 131.107 134.178C132.174 134.103 131.462 132.891 133.327 135.156C134.366 135.078 134.551 135.113 135.421 135.688L135.654 136.051C134.771 138.7 133.999 141.914 133.294 144.657C132.394 143.462 131.234 143.237 129.83 141.077L129.581 140.691C129.154 140.777 128.734 141.46 128.367 141.893C128.971 138.665 130.362 134.546 131.57 131.529Z"/>
<path d="M130.539 173.58C130.792 171.561 130.804 170.459 130.787 168.406C130.99 169.681 130.999 171.348 131.451 172.494C131.895 174.501 132.028 177.593 132.189 179.71C132.678 186.155 134.568 192.145 135.814 198.409C136.937 202.069 138.22 206.605 139.63 210.105L138.895 209.943C138.302 208.314 137.58 206.617 136.923 205.001C136.725 206.167 136.685 207.343 136.39 208.464L136.057 208.645C136.609 210.642 138.494 213.071 138.013 214.503C133.194 205.273 126.968 189.076 125.462 178.721C126.336 179.38 126.118 184.08 127.191 184.059L127.348 183.281C127.739 183.293 127.96 183.356 128.324 183.213C130.287 181.609 130.6 182.711 131.062 180.036C130.819 177.821 130.575 175.819 130.539 173.58Z"/>
<path d="M130.539 173.58C130.792 171.561 130.804 170.459 130.787 168.406C130.99 169.681 130.999 171.348 131.451 172.494C131.895 174.501 132.028 177.593 132.189 179.71C132.678 186.155 134.568 192.145 135.814 198.409L135.468 198.402C134.634 197.86 134.538 196.93 134.226 195.877L132.873 190.426C132.013 190.86 130.393 191.559 129.851 192.283C129.233 190.415 128.481 188.504 127.943 186.624C127.498 185.067 127.551 184.544 128.324 183.213C130.287 181.609 130.6 182.711 131.062 180.036C130.819 177.821 130.575 175.819 130.539 173.58Z"/>
<path d="M132.144 198.915C132.24 198.13 132.167 198.35 132.079 197.605C131.952 196.573 132.247 195.533 132.896 194.717L133.255 194.691L133.97 196.217L134.226 195.877C134.538 196.93 134.634 197.86 135.468 198.402L135.814 198.409C136.937 202.069 138.22 206.605 139.63 210.105L138.895 209.943C138.302 208.314 137.58 206.617 136.923 205.001C136.725 206.167 136.685 207.343 136.39 208.464L136.057 208.645L132.144 198.915Z"/>
<path d="M129.851 192.283C130.393 191.559 132.013 190.86 132.873 190.426L134.226 195.877L133.97 196.217L133.255 194.691L132.896 194.717C132.247 195.533 131.952 196.573 132.079 197.605C132.167 198.35 132.24 198.13 132.144 198.915C131.366 196.974 130.544 194.311 129.851 192.283Z"/>
</mask>
<path d="M155.903 247.901L156.437 247.575L156.437 247.575L155.903 247.901ZM149.981 238.446L149.356 238.44L149.354 238.601L149.431 238.742L149.981 238.446ZM142.638 223.717L142.063 223.962L142.067 223.971L142.071 223.98L142.638 223.717ZM138.013 214.503L137.42 214.304L137.341 214.54L137.446 214.766L138.013 214.503ZM136.057 208.645L135.759 208.095L135.322 208.332L135.455 208.811L136.057 208.645ZM136.39 208.464L136.688 209.014L136.926 208.885L136.994 208.623L136.39 208.464ZM136.923 205.001L137.502 204.766L136.676 202.734L136.307 204.896L136.923 205.001ZM138.895 209.943L138.308 210.157L138.426 210.48L138.761 210.554L138.895 209.943ZM139.63 210.105L140.217 209.893L140.214 209.882L140.209 209.872L139.63 210.105ZM140.242 206.575L139.622 206.651V206.651L140.242 206.575ZM146.897 164.697L146.348 164.398L146.333 164.426L146.32 164.455L146.897 164.697ZM150.118 157.739L149.555 157.468L149.552 157.473L150.118 157.739ZM154.853 148.518L155.401 148.819L155.403 148.815L154.853 148.518ZM174.054 115.292L174.593 115.608L174.593 115.608L174.054 115.292ZM142.07 197.41L141.562 197.775L142.552 199.153L142.693 197.462L142.07 197.41ZM140.652 192.527L141.252 192.351L141.187 192.132L140.998 192.006L140.652 192.527ZM140.143 192.117L139.716 192.573L139.722 192.579L140.143 192.117ZM146.855 102.947L147.46 102.789L147.452 102.759L147.441 102.73L146.855 102.947ZM149.331 107.889L149.869 108.208L150.054 107.896L149.875 107.58L149.331 107.889ZM132.772 150.79L132.154 150.698V150.698L132.772 150.79ZM132.189 179.71L132.812 179.663L132.812 179.663L132.189 179.71ZM129.581 140.691L130.106 140.352L129.874 139.993L129.456 140.078L129.581 140.691ZM129.83 141.077L129.305 141.416L129.306 141.418L129.83 141.077ZM130.539 173.58L129.919 173.502L129.914 173.546L129.914 173.59L130.539 173.58ZM130.787 168.406L131.404 168.307L130.162 168.411L130.787 168.406ZM135.468 198.402L135.128 198.926L135.277 199.023L135.455 199.027L135.468 198.402ZM132.873 190.426L133.48 190.276L133.291 189.516L132.592 189.868L132.873 190.426ZM131.062 180.036L131.678 180.143L131.693 180.056L131.683 179.968L131.062 180.036ZM135.654 136.051L136.247 136.249L136.341 135.965L136.18 135.714L135.654 136.051ZM135.421 135.688L135.947 135.35L135.875 135.239L135.765 135.166L135.421 135.688ZM133.327 135.156L132.845 135.553L133.05 135.803L133.373 135.779L133.327 135.156ZM131.107 134.178L130.508 134L130.252 134.865L131.151 134.801L131.107 134.178ZM131.57 131.529L130.952 131.433L130.945 131.478L130.945 131.524L131.57 131.529ZM128.324 183.213L128.553 183.795L128.644 183.759L128.72 183.697L128.324 183.213ZM127.348 183.281L127.367 182.656L126.84 182.64L126.735 183.157L127.348 183.281ZM127.191 184.059L127.203 184.684L127.705 184.674L127.804 184.183L127.191 184.059ZM137.493 130.966L136.974 131.314L137.445 132.017L137.978 131.36L137.493 130.966ZM133.573 127.696L132.96 127.57L132.9 127.866L133.093 128.097L133.573 127.696ZM132.079 197.605L132.7 197.531L132.699 197.529L132.079 197.605ZM132.896 194.717L132.851 194.093L132.578 194.113L132.407 194.327L132.896 194.717ZM133.255 194.691L133.82 194.425L133.638 194.037L133.21 194.067L133.255 194.691ZM133.97 196.217L133.405 196.482L133.846 197.423L134.47 196.593L133.97 196.217ZM160.811 255.316L161.281 254.905C160.772 254.324 159.814 252.911 158.838 251.4C157.872 249.906 156.921 248.369 156.437 247.575L155.903 247.901L155.37 248.227C155.858 249.026 156.815 250.573 157.788 252.078C158.749 253.566 159.759 255.064 160.341 255.728L160.811 255.316ZM155.903 247.901L156.437 247.575C155.559 246.138 154.456 244.479 153.392 242.84C152.323 241.193 151.291 239.562 150.531 238.15L149.981 238.446L149.431 238.742C150.217 240.205 151.275 241.874 152.344 243.521C153.419 245.178 154.504 246.809 155.37 248.227L155.903 247.901ZM149.981 238.446L150.606 238.452C150.608 238.273 150.555 238.079 150.508 237.928C150.454 237.757 150.379 237.556 150.288 237.335C150.107 236.891 149.849 236.329 149.542 235.692C148.928 234.416 148.1 232.805 147.244 231.17C145.52 227.878 143.698 224.516 143.205 223.453L142.638 223.717L142.071 223.98C142.581 225.078 144.437 228.506 146.136 231.75C146.992 233.383 147.812 234.978 148.416 236.234C148.719 236.863 148.964 237.399 149.131 237.808C149.215 238.013 149.276 238.178 149.315 238.302C149.36 238.446 149.356 238.475 149.356 238.44L149.981 238.446ZM142.638 223.717L143.212 223.471C142.623 222.091 141.797 220.504 140.959 218.912C140.115 217.309 139.257 215.699 138.58 214.24L138.013 214.503L137.446 214.766C138.14 216.261 139.016 217.905 139.853 219.494C140.695 221.094 141.496 222.637 142.063 223.962L142.638 223.717ZM138.013 214.503L138.605 214.702C138.781 214.18 138.724 213.622 138.593 213.11C138.461 212.592 138.233 212.049 137.989 211.523C137.48 210.423 136.917 209.411 136.659 208.478L136.057 208.645L135.455 208.811C135.749 209.876 136.405 211.077 136.855 212.049C137.092 212.559 137.279 213.016 137.382 213.419C137.487 213.827 137.486 214.11 137.42 214.304L138.013 214.503ZM136.057 208.645L136.355 209.194L136.688 209.014L136.39 208.464L136.092 207.915L135.759 208.095L136.057 208.645ZM136.39 208.464L136.994 208.623C137.153 208.02 137.241 207.412 137.313 206.826C137.387 206.228 137.443 205.67 137.539 205.106L136.923 205.001L136.307 204.896C136.205 205.498 136.142 206.111 136.072 206.673C136.001 207.247 135.922 207.787 135.785 208.305L136.39 208.464ZM136.923 205.001L136.344 205.237C137.006 206.865 137.72 208.542 138.308 210.157L138.895 209.943L139.483 209.729C138.883 208.086 138.154 206.368 137.502 204.766L136.923 205.001ZM138.895 209.943L138.761 210.554L139.495 210.715L139.63 210.105L139.764 209.495L139.03 209.333L138.895 209.943ZM139.63 210.105L139.042 210.318C139.696 212.127 140.347 213.988 141.104 215.789L141.681 215.546L142.257 215.304C141.515 213.541 140.879 211.721 140.217 209.893L139.63 210.105ZM141.681 215.546L142.3 215.629C142.329 215.415 142.318 215.137 142.294 214.855C142.269 214.559 142.225 214.208 142.169 213.824C142.057 213.055 141.891 212.125 141.715 211.184C141.359 209.278 140.969 207.358 140.863 206.498L140.242 206.575L139.622 206.651C139.735 207.563 140.14 209.561 140.486 211.414C140.662 212.352 140.824 213.262 140.932 214.005C140.987 214.376 141.027 214.699 141.049 214.96C141.072 215.233 141.07 215.394 141.061 215.464L141.681 215.546ZM140.242 206.575L140.863 206.498C140.29 201.864 139.96 196.543 140.488 191.93L139.867 191.859L139.246 191.788C138.701 196.543 139.044 201.978 139.622 206.651L140.242 206.575ZM139.867 191.859L140.489 191.92C141.486 181.721 143.471 174.486 147.473 164.939L146.897 164.697L146.32 164.455C142.276 174.104 140.256 181.46 139.245 191.798L139.867 191.859ZM146.897 164.697L147.445 164.996C148.373 163.295 149.82 159.843 150.684 158.005L150.118 157.739L149.552 157.473C148.638 159.418 147.256 162.733 146.348 164.398L146.897 164.697ZM150.118 157.739L150.681 158.009C152.173 154.904 153.746 151.84 155.401 148.819L154.853 148.518L154.305 148.218C152.639 151.259 151.055 154.343 149.555 157.468L150.118 157.739ZM154.853 148.518L155.403 148.815C161.385 137.714 168.166 126.546 174.593 115.608L174.054 115.292L173.515 114.975C167.101 125.891 160.299 137.094 154.303 148.222L154.853 148.518ZM174.054 115.292L174.593 115.608C180.453 105.629 186.436 94.659 192.551 85.0116L192.023 84.677L191.495 84.3424C185.366 94.0108 179.345 105.047 173.515 114.975L174.054 115.292ZM142.144 196.52L141.521 196.468L141.447 197.358L142.07 197.41L142.693 197.462L142.767 196.571L142.144 196.52ZM142.07 197.41L142.577 197.046C142.005 196.249 141.832 195.641 141.725 194.975C141.619 194.309 141.57 193.433 141.252 192.351L140.652 192.527L140.052 192.703C140.341 193.686 140.361 194.36 140.491 195.173C140.621 195.986 140.853 196.788 141.562 197.775L142.07 197.41ZM140.652 192.527L140.998 192.006C140.957 191.98 140.925 191.958 140.898 191.941C140.87 191.922 140.852 191.91 140.837 191.9C140.822 191.89 140.815 191.885 140.811 191.883C140.811 191.882 140.81 191.882 140.81 191.882C140.81 191.882 140.81 191.882 140.81 191.882C140.81 191.882 140.81 191.882 140.81 191.882C140.81 191.882 140.81 191.882 140.81 191.882C140.81 191.882 140.81 191.882 140.81 191.882C140.81 191.882 140.81 191.882 140.81 191.882C140.805 191.878 140.797 191.871 140.752 191.829C140.712 191.791 140.654 191.737 140.564 191.655L140.143 192.117L139.722 192.579C139.806 192.655 139.859 192.705 139.898 192.742C139.933 192.775 139.972 192.811 140.013 192.845C140.06 192.884 140.102 192.913 140.144 192.941C140.167 192.956 140.25 193.01 140.307 193.048L140.652 192.527ZM140.143 192.117L140.57 191.66L140.294 191.402L139.867 191.859L139.44 192.315L139.716 192.573L140.143 192.117ZM142.613 223.653L142.226 224.144C142.651 224.478 143.068 224.732 143.447 224.955C143.836 225.184 144.163 225.367 144.471 225.582C145.044 225.984 145.522 226.482 145.858 227.488L146.451 227.29L147.044 227.092C146.612 225.801 145.952 225.094 145.188 224.559C144.828 224.306 144.437 224.087 144.08 223.877C143.713 223.662 143.355 223.442 142.999 223.161L142.613 223.653ZM146.262 102.371L145.94 102.907C146.097 103.001 146.208 103.057 146.289 103.096C146.335 103.119 146.346 103.123 146.362 103.131C146.373 103.137 146.351 103.127 146.32 103.104C146.281 103.074 146.245 103.036 146.217 102.995C146.195 102.961 146.186 102.937 146.189 102.946C146.193 102.954 146.199 102.971 146.214 103.013C146.227 103.05 146.246 103.102 146.269 103.164L146.855 102.947L147.441 102.73C147.41 102.646 147.37 102.529 147.343 102.465C147.303 102.37 147.233 102.228 147.078 102.11C146.983 102.038 146.853 101.981 146.834 101.971C146.779 101.945 146.702 101.906 146.584 101.835L146.262 102.371ZM146.855 102.947L146.25 103.106C146.464 103.922 146.915 104.862 147.389 105.744C147.864 106.626 148.402 107.519 148.788 108.198L149.331 107.889L149.875 107.58C149.464 106.858 148.958 106.02 148.49 105.151C148.022 104.282 147.633 103.452 147.46 102.789L146.855 102.947ZM149.331 107.889L148.794 107.57C144.051 115.56 141.739 120.124 138.258 128.682L138.837 128.917L139.416 129.153C142.872 120.657 145.155 116.149 149.869 108.208L149.331 107.889ZM138.837 128.917L138.24 128.733C135.774 136.736 133.482 141.769 132.154 150.698L132.772 150.79L133.39 150.882C134.7 142.078 136.93 137.232 139.434 129.101L138.837 128.917ZM132.772 150.79L132.154 150.698C131.563 154.668 131.368 158.292 131.252 161.828C131.136 165.372 131.099 168.804 130.828 172.448L131.451 172.494L132.074 172.541C132.348 168.863 132.387 165.378 132.502 161.868C132.617 158.35 132.81 154.782 133.39 150.882L132.772 150.79ZM131.451 172.494L130.841 172.629C131.272 174.579 131.401 177.595 131.566 179.758L132.189 179.71L132.812 179.663C132.654 177.592 132.518 174.424 132.061 172.359L131.451 172.494ZM132.189 179.71L131.566 179.758C132.058 186.249 133.973 192.358 135.201 198.531L135.814 198.409L136.427 198.287C135.163 191.932 133.298 186.061 132.812 179.663L132.189 179.71ZM135.814 198.409L135.217 198.592C136.332 202.228 137.628 206.806 139.05 210.339L139.63 210.105L140.209 209.872C138.813 206.404 137.541 201.909 136.412 198.226L135.814 198.409ZM141.681 215.546L141.076 215.706C141.408 216.959 141.808 217.966 142.249 219.122L142.833 218.899L143.417 218.676C142.968 217.502 142.596 216.562 142.285 215.386L141.681 215.546ZM128.367 141.893L128.845 142.297C128.947 142.175 129.052 142.038 129.146 141.917C129.244 141.79 129.335 141.674 129.424 141.571C129.514 141.467 129.588 141.393 129.65 141.345C129.714 141.294 129.731 141.298 129.705 141.303L129.581 140.691L129.456 140.078C129.217 140.127 129.021 140.248 128.875 140.363C128.726 140.481 128.593 140.621 128.479 140.753C128.364 140.885 128.254 141.027 128.157 141.153C128.056 141.284 127.971 141.395 127.89 141.49L128.367 141.893ZM129.581 140.691L129.055 141.029L129.305 141.416L129.83 141.077L130.355 140.739L130.106 140.352L129.581 140.691ZM129.83 141.077L129.306 141.418C130.052 142.565 130.742 143.207 131.354 143.711C131.977 144.224 132.403 144.513 132.794 145.033L133.294 144.657L133.793 144.282C133.285 143.606 132.681 143.184 132.148 142.746C131.605 142.299 131.012 141.749 130.354 140.737L129.83 141.077ZM133.294 144.657L132.682 144.529C132.286 146.426 131.865 148.764 131.337 150.516L131.936 150.696L132.534 150.877C133.082 149.056 133.522 146.621 133.906 144.785L133.294 144.657ZM130.539 173.58L131.159 173.658C131.417 171.599 131.429 170.466 131.412 168.4L130.787 168.406L130.162 168.411C130.179 170.453 130.167 171.523 129.919 173.502L130.539 173.58ZM130.787 168.406L130.17 168.504C130.269 169.128 130.316 169.808 130.405 170.571C130.49 171.296 130.612 172.069 130.87 172.724L131.451 172.494L132.033 172.265C131.839 171.773 131.73 171.139 131.646 170.426C131.567 169.75 131.508 168.958 131.404 168.307L130.787 168.406ZM135.814 198.409L135.827 197.784L135.481 197.777L135.468 198.402L135.455 199.027L135.802 199.034L135.814 198.409ZM135.468 198.402L135.809 197.878C135.537 197.701 135.372 197.461 135.234 197.105C135.077 196.7 135.004 196.302 134.825 195.7L134.226 195.877L133.627 196.055C133.76 196.505 133.891 197.099 134.068 197.557C134.265 198.066 134.566 198.561 135.128 198.926L135.468 198.402ZM134.226 195.877L134.833 195.727L133.48 190.276L132.873 190.426L132.267 190.577L133.619 196.028L134.226 195.877ZM131.062 180.036L131.683 179.968C131.439 177.742 131.199 175.773 131.164 173.57L130.539 173.58L129.914 173.59C129.95 175.864 130.199 177.899 130.441 180.104L131.062 180.036ZM135.654 136.051L136.18 135.714L135.947 135.35L135.421 135.688L134.894 136.025L135.128 136.389L135.654 136.051ZM135.421 135.688L135.765 135.166C135.335 134.882 134.99 134.671 134.588 134.571C134.191 134.472 133.786 134.495 133.281 134.532L133.327 135.156L133.373 135.779C133.907 135.739 134.114 135.741 134.286 135.784C134.454 135.826 134.637 135.919 135.076 136.209L135.421 135.688ZM133.327 135.156L133.81 134.758C133.345 134.194 133.019 133.818 132.776 133.586C132.656 133.471 132.529 133.363 132.392 133.286C132.248 133.205 132.051 133.136 131.822 133.172C131.608 133.205 131.461 133.317 131.394 133.371C131.359 133.399 131.324 133.43 131.306 133.446C131.283 133.466 131.269 133.479 131.254 133.49C131.223 133.515 131.184 133.546 131.063 133.554L131.107 134.178L131.151 134.801C131.564 134.772 131.836 134.624 132.029 134.471C132.071 134.438 132.107 134.406 132.132 134.384C132.161 134.359 132.171 134.35 132.179 134.343C132.199 134.328 132.134 134.388 132.014 134.407C131.879 134.428 131.789 134.381 131.78 134.376C131.78 134.376 131.819 134.399 131.911 134.488C132.093 134.663 132.376 134.984 132.845 135.553L133.327 135.156ZM131.107 134.178L131.707 134.356C132.026 133.278 132.186 132.722 132.195 131.534L131.57 131.529L130.945 131.524C130.937 132.535 130.817 132.958 130.508 134L131.107 134.178ZM131.57 131.529L132.187 131.624C132.201 131.537 132.258 131.366 132.355 131.127C132.458 130.875 132.538 130.705 132.629 130.488L132.053 130.246L131.476 130.005C131.423 130.132 131.288 130.435 131.198 130.654C131.104 130.885 130.991 131.183 130.952 131.433L131.57 131.529ZM131.062 180.036L130.446 179.93C130.211 181.288 130.042 181.416 129.904 181.51C129.846 181.549 129.771 181.59 129.653 181.649C129.544 181.703 129.389 181.777 129.225 181.863C128.88 182.044 128.456 182.298 127.929 182.729L128.324 183.213L128.72 183.697C129.174 183.326 129.525 183.117 129.806 182.97C129.954 182.892 130.074 182.835 130.209 182.768C130.335 182.705 130.475 182.633 130.607 182.543C131.232 182.118 131.45 181.46 131.678 180.143L131.062 180.036ZM128.324 183.213L128.096 182.631C127.888 182.713 127.875 182.671 127.367 182.656L127.348 183.281L127.329 183.906C127.604 183.914 128.032 183.999 128.553 183.795L128.324 183.213ZM127.348 183.281L126.735 183.157L126.578 183.936L127.191 184.059L127.804 184.183L127.961 183.404L127.348 183.281ZM127.191 184.059L127.179 183.434C127.31 183.432 127.365 183.515 127.34 183.481C127.306 183.438 127.25 183.334 127.186 183.135C127.06 182.743 126.966 182.188 126.87 181.552C126.778 180.941 126.685 180.26 126.56 179.699C126.497 179.417 126.42 179.14 126.32 178.9C126.226 178.674 126.081 178.405 125.837 178.222L125.462 178.721L125.086 179.22C125.061 179.202 125.1 179.223 125.166 179.381C125.226 179.524 125.284 179.722 125.34 179.972C125.453 180.477 125.537 181.094 125.634 181.738C125.727 182.357 125.834 183.014 125.996 183.518C126.076 183.767 126.186 184.032 126.349 184.244C126.52 184.466 126.803 184.692 127.203 184.684L127.191 184.059ZM138.837 128.917L138.488 128.399C138.137 128.635 137.886 128.84 137.715 129.053C137.519 129.298 137.457 129.519 137.424 129.708C137.395 129.875 137.396 129.92 137.355 130.027C137.316 130.128 137.23 130.298 137.008 130.572L137.493 130.966L137.978 131.36C138.259 131.014 138.425 130.73 138.523 130.472C138.619 130.22 138.642 129.999 138.655 129.923C138.665 129.867 138.666 129.865 138.691 129.835C138.741 129.772 138.866 129.651 139.186 129.436L138.837 128.917ZM137.493 130.966L138.012 130.618C136.924 128.994 136.153 128.428 135.439 128.113C134.754 127.81 134.514 127.847 134.052 127.295L133.573 127.696L133.093 128.097C133.8 128.942 134.475 129.054 134.934 129.256C135.366 129.447 135.97 129.818 136.974 131.314L137.493 130.966ZM133.573 127.696L134.185 127.821C134.361 126.962 134.544 126.196 134.761 125.339L134.155 125.185L133.549 125.031C133.329 125.9 133.142 126.686 132.96 127.57L133.573 127.696ZM133.294 144.657L133.899 144.813C134.608 142.053 135.373 138.871 136.247 136.249L135.654 136.051L135.061 135.853C134.169 138.53 133.389 141.776 132.688 144.502L133.294 144.657ZM132.873 190.426L132.592 189.868C132.195 190.069 131.532 190.373 130.941 190.698C130.365 191.015 129.711 191.426 129.351 191.909L129.851 192.283L130.352 192.657C130.533 192.416 130.959 192.115 131.544 191.793C132.113 191.48 132.691 191.218 133.155 190.985L132.873 190.426ZM132.144 198.915L132.764 198.992C132.812 198.603 132.829 198.39 132.801 198.167C132.789 198.076 132.768 197.973 132.755 197.901C132.739 197.815 132.72 197.703 132.7 197.531L132.079 197.605L131.458 197.679C131.482 197.88 131.506 198.019 131.525 198.127C131.548 198.247 131.555 198.279 131.561 198.323C131.567 198.373 131.572 198.442 131.523 198.839L132.144 198.915ZM132.079 197.605L132.699 197.529C132.593 196.664 132.84 195.791 133.385 195.106L132.896 194.717L132.407 194.327C131.654 195.274 131.312 196.483 131.459 197.681L132.079 197.605ZM132.896 194.717L132.941 195.34L133.299 195.314L133.255 194.691L133.21 194.067L132.851 194.093L132.896 194.717ZM133.255 194.691L132.689 194.956L133.405 196.482L133.97 196.217L134.536 195.952L133.82 194.425L133.255 194.691ZM133.97 196.217L134.47 196.593L134.726 196.253L134.226 195.877L133.726 195.502L133.471 195.842L133.97 196.217ZM240.123 1.4591L240.123 0.209102L239.401 0.209004L239.04 0.835297L240.123 1.4591ZM318.011 1.46965L318.011 2.71965L318.012 2.71965L318.011 1.46965ZM324.636 1.57867L325.875 1.74355L326.023 0.633121L324.935 0.365L324.636 1.57867ZM324.596 1.87898L325.77 2.30682L325.817 2.17886L325.835 2.04387L324.596 1.87898ZM318.575 12.1623L317.511 11.506L317.511 11.5063L318.575 12.1623ZM305.858 32.786L306.921 33.4437L306.922 33.4421L305.858 32.786ZM252.633 118.811L253.695 119.47L253.696 119.468L252.633 118.811ZM208.636 189.723L207.574 189.064L207.573 189.066L208.636 189.723ZM198.119 206.725L197.056 206.067L197.055 206.068L198.119 206.725ZM193.894 213.408L192.983 212.552L192.866 212.676L192.787 212.827L193.894 213.408ZM184.768 228.161L183.888 227.274L183.769 227.392L183.685 227.538L184.768 228.161ZM171.196 250.192L172.274 250.824L172.274 250.824L171.196 250.192ZM167.377 256.2L166.482 255.328L166.369 255.444L166.289 255.585L167.377 256.2ZM164.336 261.25L163.224 261.82L164.247 263.817L165.407 261.896L164.336 261.25ZM160.811 255.316L159.631 255.729L159.674 255.852L159.741 255.963L160.811 255.316ZM192.023 84.677L190.876 84.1792L190.808 84.3369L190.785 84.5072L192.023 84.677ZM194.806 80.0371L195.82 80.7673L195.9 80.6567L195.954 80.5316L194.806 80.0371ZM199.729 71.3493L198.65 70.7185L198.65 70.7188L199.729 71.3493ZM209.644 54.3847L210.723 55.0155L210.728 55.0085L209.644 54.3847ZM190.794 88.0536L189.712 87.4282L189.712 87.4284L190.794 88.0536ZM167.413 129.649L166.32 129.042L166.319 129.043L167.413 129.649ZM161.967 139.488L160.874 138.883L160.873 138.883L161.967 139.488ZM159.093 144.934L160.051 145.737L160.178 145.585L160.252 145.402L159.093 144.934ZM155.313 152.169L156.283 152.957L156.405 152.806L156.476 152.625L155.313 152.169ZM152.887 157.136L154.011 157.682L154.012 157.682L152.887 157.136ZM142.535 191.767L143.752 192.055L143.773 191.964L143.781 191.872L142.535 191.767ZM142.144 196.52L140.981 196.977L143.393 196.564L142.144 196.52ZM145.364 170.898L146.553 171.284L146.553 171.284L145.364 170.898ZM154.245 241.986L155.375 241.452L155.375 241.452L154.245 241.986ZM160.259 253.736L161.439 253.324L161.438 253.322L160.259 253.736ZM142.613 223.653L141.444 224.097L141.463 224.146L141.486 224.193L142.613 223.653ZM2.13592 1.32829L2.12462 0.0783459L0 0.0975572L1.04884 1.94534L2.13592 1.32829ZM86.5261 1.44996L87.5964 0.804181L87.2307 0.198129L86.5229 0.199968L86.5261 1.44996ZM130.718 74.69L129.648 75.3358L129.649 75.3371L130.718 74.69ZM142.529 94.2099L143.601 93.5665L143.599 93.5628L142.529 94.2099ZM146.532 101.077L147.642 100.501L147.641 100.501L146.532 101.077ZM146.262 102.371L147.267 103.115L147.319 103.045L147.36 102.968L146.262 102.371ZM128.438 204.427L127.378 205.089L127.382 205.096L128.438 204.427ZM61.4026 97.1097L60.3404 97.7688L60.3424 97.7719L61.4026 97.1097ZM18.3001 27.649L17.2336 28.3011L17.238 28.3081L18.3001 27.649ZM142.833 218.899L143.884 218.223L143.692 217.924L143.372 217.771L142.833 218.899ZM128.367 141.893L129.516 142.386L129.571 142.259L129.596 142.123L128.367 141.893ZM131.936 150.696L133.173 150.877L133.216 150.577L133.118 150.291L131.936 150.696ZM132.087 146.505L133.168 145.878L132.959 145.517L132.574 145.354L132.087 146.505ZM128.115 145.344L127.753 144.148L127.071 144.354L126.901 145.046L128.115 145.344ZM127.377 147.548L126.466 148.404L127.782 149.804L128.529 148.034L127.377 147.548ZM127.228 147.388L125.983 147.507L126.024 147.933L126.316 148.244L127.228 147.388ZM132.053 130.246L130.885 129.8L130.558 130.657L131.276 131.226L132.053 130.246ZM132.36 130.49L131.584 131.47L132.622 132.292L133.383 131.209L132.36 130.49ZM132.555 130.214L133.091 129.084L132.138 128.632L131.532 129.495L132.555 130.214ZM135.908 135.92L136.481 137.031L136.963 136.783L137.111 136.262L135.908 135.92ZM146.541 227.965L145.865 229.016L148.09 230.446L147.783 227.819L146.541 227.965ZM145.47 227.477L144.373 228.075L144.628 228.544L145.144 228.684L145.47 227.477ZM148.946 236.862L147.819 237.402L147.838 237.444L147.861 237.483L148.946 236.862ZM159.693 253.9L158.635 254.566L158.68 254.637L158.733 254.701L159.693 253.9ZM160.652 255.049L159.693 255.85L161.744 254.44L160.652 255.049ZM152.208 239.159L153.333 238.615V238.615L152.208 239.159ZM141.653 215.995H140.403V216.262L140.512 216.505L141.653 215.995ZM141.653 215.229H142.903V214.911L142.751 214.632L141.653 215.229ZM138.007 208.529L139.105 207.932L136.797 208.844L138.007 208.529ZM140.502 218.101L139.292 218.416L139.309 218.482L139.333 218.545L140.502 218.101ZM125.462 178.721L126.699 178.541L126.683 178.432L126.648 178.328L125.462 178.721ZM124.888 175.608L126.126 175.436L126.126 175.436L124.888 175.608ZM134.155 125.185L135.268 125.755L135.329 125.635L135.364 125.504L134.155 125.185ZM135.861 121.364L134.741 120.81L134.737 120.817L135.861 121.364ZM141.483 111.284L140.429 110.613L140.423 110.621L141.483 111.284ZM129.851 192.283L128.665 192.676L128.669 192.687L129.851 192.283ZM127.943 186.624L126.741 186.968L126.741 186.968L127.943 186.624ZM132.144 198.915L130.983 199.38L130.984 199.382L132.144 198.915ZM318.011 1.46965L318.012 2.71965C318.353 2.71935 318.886 2.71138 319.489 2.70358C320.098 2.69569 320.79 2.68777 321.469 2.68703C322.15 2.68629 322.806 2.69282 323.344 2.71306C323.613 2.7232 323.843 2.73642 324.026 2.75266C324.117 2.76075 324.19 2.76907 324.247 2.7771C324.275 2.78107 324.297 2.78464 324.313 2.7876C324.33 2.79062 324.337 2.79239 324.337 2.79233L324.636 1.57867L324.935 0.365C324.556 0.27149 323.978 0.235169 323.438 0.214835C322.853 0.192788 322.159 0.186283 321.467 0.187036C320.772 0.187791 320.067 0.195883 319.456 0.203786C318.839 0.211769 318.331 0.219364 318.01 0.219648L318.011 1.46965ZM324.636 1.57867L323.397 1.41378L323.357 1.7141L324.596 1.87898L325.835 2.04387L325.875 1.74355L324.636 1.57867ZM324.596 1.87898L323.421 1.45115C323.112 2.3018 322.016 4.21808 320.74 6.31487C319.486 8.37692 318.192 10.4016 317.511 11.506L318.575 12.1623L319.639 12.8186C320.276 11.7859 321.631 9.66247 322.876 7.61391C324.101 5.60008 325.357 3.44325 325.77 2.30682L324.596 1.87898ZM318.575 12.1623L317.511 11.5063L304.794 32.1299L305.858 32.786L306.922 33.4421L319.639 12.8184L318.575 12.1623ZM305.858 32.786L304.795 32.1283L251.57 118.153L252.633 118.811L253.696 119.468L306.921 33.4437L305.858 32.786ZM252.633 118.811L251.571 118.152L207.574 189.064L208.636 189.723L209.698 190.382L253.695 119.47L252.633 118.811ZM208.636 189.723L207.573 189.066L197.056 206.067L198.119 206.725L199.182 207.382L209.699 190.381L208.636 189.723ZM198.119 206.725L197.055 206.068C196.782 206.511 195.854 208.038 194.919 209.544C194.454 210.294 193.994 211.027 193.623 211.6C193.438 211.887 193.279 212.128 193.155 212.309C193.01 212.52 192.963 212.574 192.983 212.552L193.894 213.408L194.805 214.264C194.939 214.121 195.094 213.901 195.216 213.724C195.359 213.515 195.532 213.252 195.723 212.957C196.106 212.364 196.575 211.617 197.043 210.863C197.974 209.362 198.93 207.792 199.183 207.381L198.119 206.725ZM193.894 213.408L192.787 212.827C192.293 213.767 190.334 217.123 188.33 220.421C187.332 222.064 186.332 223.676 185.509 224.948C185.097 225.585 184.735 226.128 184.442 226.545C184.128 226.992 183.948 227.214 183.888 227.274L184.768 228.161L185.648 229.049C185.89 228.809 186.19 228.407 186.488 227.983C186.807 227.528 187.189 226.955 187.609 226.305C188.449 225.005 189.463 223.371 190.466 221.72C192.465 218.431 194.465 215.01 195 213.99L193.894 213.408ZM184.768 228.161L183.685 227.538C181.568 231.217 179.273 234.856 176.954 238.515C174.639 242.167 172.299 245.842 170.118 249.559L171.196 250.192L172.274 250.824C174.429 247.152 176.744 243.517 179.065 239.854C181.382 236.198 183.705 232.516 185.852 228.785L184.768 228.161ZM171.196 250.192L170.118 249.559C169.809 250.086 169.046 251.386 168.27 252.649C167.881 253.281 167.494 253.895 167.161 254.393C166.806 254.926 166.574 255.233 166.482 255.328L167.377 256.2L168.272 257.073C168.553 256.785 168.907 256.281 169.241 255.78C169.598 255.245 170.003 254.602 170.399 253.959C171.191 252.671 171.966 251.35 172.274 250.824L171.196 250.192ZM167.377 256.2L166.289 255.585C165.376 257.2 164.269 258.942 163.266 260.604L164.336 261.25L165.407 261.896C166.364 260.309 167.531 258.468 168.465 256.815L167.377 256.2ZM164.336 261.25L165.449 260.68C164.515 258.858 162.904 256.363 161.881 254.67L160.811 255.316L159.741 255.963C160.838 257.777 162.343 260.102 163.224 261.82L164.336 261.25ZM192.023 84.677L193.17 85.1749C193.33 84.805 193.835 83.9177 194.42 82.9551C194.993 82.0119 195.567 81.1195 195.82 80.7673L194.806 80.0371L193.791 79.3068C193.476 79.7446 192.859 80.7095 192.283 81.6573C191.719 82.5858 191.118 83.6235 190.876 84.1792L192.023 84.677ZM194.806 80.0371L195.954 80.5316C196.336 79.6436 197.23 78.0458 198.217 76.354C198.703 75.5212 199.201 74.6848 199.652 73.9275C200.102 73.1733 200.509 72.4919 200.808 71.9797L199.729 71.3493L198.65 70.7188C198.358 71.2186 197.959 71.8864 197.505 72.6474C197.053 73.4052 196.551 74.2501 196.058 75.0935C195.089 76.754 194.112 78.4882 193.658 79.5425L194.806 80.0371ZM199.729 71.3493L200.808 71.98L210.723 55.0154L209.644 54.3847L208.565 53.7539L198.65 70.7185L199.729 71.3493ZM209.644 54.3847L210.728 55.0085L241.206 2.08291L240.123 1.4591L239.04 0.835297L208.561 53.7609L209.644 54.3847ZM192.023 84.677L190.785 84.5072C190.659 85.4242 190.588 85.7469 190.483 86.0174C190.363 86.3255 190.195 86.5919 189.712 87.4282L190.794 88.0536L191.876 88.6791C192.281 87.9781 192.603 87.4646 192.813 86.9228C193.038 86.3435 193.138 85.7465 193.261 84.8468L192.023 84.677ZM190.794 88.0536L189.712 87.4284C181.792 101.138 173.991 115.22 166.32 129.042L167.413 129.649L168.505 130.255C176.18 116.428 183.97 102.367 191.876 88.6789L190.794 88.0536ZM167.413 129.649L166.319 129.043L160.874 138.883L161.967 139.488L163.061 140.093L168.506 130.254L167.413 129.649ZM161.967 139.488L160.873 138.883C160.137 140.214 158.536 142.975 157.934 144.466L159.093 144.934L160.252 145.402C160.778 144.098 162.247 141.565 163.061 140.093L161.967 139.488ZM159.093 144.934L158.135 144.131C158 144.292 157.853 144.532 157.736 144.729C157.6 144.958 157.438 145.246 157.261 145.567C156.906 146.212 156.476 147.023 156.053 147.84C155.225 149.438 154.359 151.176 154.149 151.712L155.313 152.169L156.476 152.625C156.627 152.24 157.418 150.639 158.273 148.99C158.691 148.183 159.11 147.393 159.451 146.773C159.622 146.462 159.77 146.201 159.886 146.005C160.022 145.777 160.069 145.716 160.051 145.737L159.093 144.934ZM155.313 152.169L154.343 151.38C154.085 151.698 153.833 152.139 153.614 152.561C153.383 153.004 153.144 153.513 152.916 154.015C152.438 155.066 152.04 156.019 151.762 156.591L152.887 157.136L154.012 157.682C154.3 157.087 154.77 155.978 155.192 155.049C155.414 154.561 155.632 154.1 155.832 153.715C156.043 153.308 156.197 153.063 156.283 152.957L155.313 152.169ZM152.887 157.136L151.762 156.591C146.687 167.05 142.281 179.868 141.289 191.663L142.535 191.767L143.781 191.872C144.738 180.486 149.017 167.976 154.011 157.682L152.887 157.136ZM142.535 191.767L141.318 191.48C140.937 193.096 140.946 195.038 140.895 196.475L142.144 196.52L143.393 196.564C143.451 194.943 143.443 193.36 143.752 192.055L142.535 191.767ZM146.897 164.697L145.647 164.689C145.633 166.739 144.926 168.202 144.176 170.511L145.364 170.898L146.553 171.284C147.197 169.304 148.13 167.264 148.147 164.705L146.897 164.697ZM145.364 170.898L144.176 170.511C143.087 173.858 141.603 178.66 140.725 183.484C139.858 188.246 139.529 193.288 140.981 196.977L142.144 196.52L143.307 196.062C142.131 193.074 142.327 188.643 143.185 183.932C144.031 179.282 145.471 174.612 146.553 171.284L145.364 170.898ZM142.07 197.41L140.82 197.402C140.718 213.351 146.493 228.515 153.115 242.521L154.245 241.986L155.375 241.452C148.789 227.522 143.222 212.781 143.32 197.418L142.07 197.41ZM154.245 241.986L153.115 242.52C153.797 243.963 155.116 246.344 156.329 248.595C157.58 250.915 158.693 253.05 159.079 254.15L160.259 253.736L161.438 253.322C160.971 251.992 159.741 249.654 158.53 247.409C157.282 245.094 156.02 242.815 155.375 241.452L154.245 241.986ZM160.259 253.736L159.079 254.149L159.631 255.729L160.811 255.316L161.991 254.904L161.439 253.324L160.259 253.736ZM2.13592 1.32829L2.14722 2.57824C30.158 2.32496 58.4179 2.77299 86.5294 2.69996L86.5261 1.44996L86.5229 0.199968C58.5034 0.272758 30.1159 -0.174758 2.12462 0.0783459L2.13592 1.32829ZM86.5261 1.44996L85.4558 2.09575L129.648 75.3358L130.718 74.69L131.788 74.0442L87.5964 0.804181L86.5261 1.44996ZM130.718 74.69L129.649 75.3371L141.46 94.857L142.529 94.2099L143.599 93.5628L131.788 74.0429L130.718 74.69ZM142.529 94.2099L141.457 94.8534C142.715 96.948 144.324 99.5382 145.423 101.654L146.532 101.077L147.641 100.501C146.496 98.2958 144.822 95.6008 143.601 93.5665L142.529 94.2099ZM146.532 101.077L145.423 101.653C145.438 101.683 145.411 101.642 145.403 101.549C145.399 101.503 145.401 101.456 145.408 101.412C145.414 101.368 145.424 101.336 145.43 101.319C145.436 101.303 145.439 101.3 145.431 101.315C145.423 101.33 145.409 101.355 145.384 101.397C145.372 101.418 145.359 101.44 145.343 101.467C145.327 101.492 145.309 101.522 145.29 101.553C145.253 101.616 145.209 101.691 145.164 101.774L146.262 102.371L147.36 102.968C147.413 102.871 147.452 102.811 147.534 102.674C147.599 102.563 147.704 102.383 147.782 102.168C147.867 101.933 147.922 101.653 147.894 101.334C147.868 101.025 147.769 100.747 147.642 100.501L146.532 101.077ZM149.981 238.446L151.028 237.763C143.83 226.732 136.592 214.966 129.494 203.758L128.438 204.427L127.382 205.096C134.454 216.263 141.725 228.081 148.934 239.129L149.981 238.446ZM128.438 204.427L129.498 203.765L62.4627 96.4475L61.4026 97.1097L60.3424 97.7719L127.378 205.089L128.438 204.427ZM61.4026 97.1097L62.4647 96.4506L19.3622 26.9899L18.3001 27.649L17.238 28.3081L60.3404 97.7688L61.4026 97.1097ZM18.3001 27.649L19.3665 26.9969C14.0991 18.3823 8.112 9.32441 3.22301 0.711245L2.13592 1.32829L1.04884 1.94534C5.95892 10.5957 12.0373 19.8027 17.2336 28.3011L18.3001 27.649ZM240.123 1.4591L240.123 2.7091L318.011 2.71965L318.011 1.46965L318.011 0.219648L240.123 0.209102L240.123 1.4591ZM142.833 218.899L143.372 217.771C143.567 217.864 143.573 217.957 143.41 217.718C143.288 217.54 143.135 217.274 142.956 216.919C142.602 216.216 142.207 215.284 141.817 214.295C141.037 212.316 140.335 210.249 140.071 209.518L138.895 209.943L137.72 210.368C137.96 211.033 138.695 213.189 139.491 215.212C139.89 216.224 140.318 217.238 140.723 218.043C140.925 218.443 141.135 218.822 141.348 219.132C141.519 219.382 141.833 219.806 142.293 220.026L142.833 218.899ZM131.936 150.696L133.118 150.291C132.922 149.719 133.021 149.307 133.214 148.703C133.378 148.188 133.844 147.046 133.168 145.878L132.087 146.505L131.005 147.131C131.028 147.171 131.085 147.151 130.832 147.943C130.608 148.646 130.282 149.726 130.753 151.102L131.936 150.696ZM132.087 146.505L132.574 145.354C132.135 145.167 131.29 144.781 130.481 144.494C130.071 144.348 129.625 144.21 129.199 144.129C128.811 144.055 128.269 143.992 127.753 144.148L128.115 145.344L128.477 146.541C128.396 146.565 128.445 146.53 128.731 146.585C128.979 146.632 129.29 146.723 129.643 146.849C130.359 147.104 131.065 147.429 131.599 147.655L132.087 146.505ZM128.115 145.344L126.901 145.046C126.688 145.914 126.58 146.222 126.226 147.062L127.377 147.548L128.529 148.034C128.928 147.087 129.08 146.654 129.329 145.643L128.115 145.344ZM127.377 147.548L128.289 146.692L128.139 146.533L127.228 147.388L126.316 148.244L126.466 148.404L127.377 147.548ZM127.228 147.388L128.472 147.27C128.425 146.781 128.532 145.893 128.76 144.874C128.982 143.884 129.28 142.937 129.516 142.386L128.367 141.893L127.219 141.4C126.903 142.136 126.564 143.24 126.321 144.327C126.084 145.385 125.897 146.601 125.983 147.507L127.228 147.388ZM132.873 190.426L134.093 190.154C133.337 186.768 132.827 183.341 132.298 179.849L131.062 180.036L129.826 180.224C130.352 183.694 130.875 187.212 131.653 190.699L132.873 190.426ZM132.053 130.246L131.276 131.226L131.584 131.47L132.36 130.49L133.137 129.511L132.829 129.267L132.053 130.246ZM132.36 130.49L133.383 131.209L133.578 130.932L132.555 130.214L131.532 129.495L131.338 129.772L132.36 130.49ZM132.555 130.214L132.019 131.343C132.845 131.735 133.467 132.045 133.944 132.343C134.418 132.638 134.664 132.871 134.801 133.071C135.015 133.384 135.175 133.93 134.706 135.578L135.908 135.92L137.111 136.262C137.619 134.475 137.747 132.95 136.864 131.659C136.452 131.057 135.883 130.605 135.267 130.221C134.653 129.839 133.91 129.474 133.091 129.084L132.555 130.214ZM135.908 135.92L135.336 134.809L135.081 134.94L135.654 136.051L136.226 137.162L136.481 137.031L135.908 135.92ZM142.833 218.899L141.781 219.575C142.093 220.059 142.939 221.882 143.762 223.863C144.164 224.828 144.542 225.788 144.828 226.582C145.134 227.431 145.281 227.949 145.3 228.11L146.541 227.965L147.783 227.819C147.724 227.319 147.464 226.522 147.18 225.734C146.876 224.891 146.482 223.891 146.071 222.903C145.271 220.98 144.34 218.932 143.884 218.223L142.833 218.899ZM146.541 227.965L147.217 226.913C146.725 226.597 146.414 226.437 145.796 226.27L145.47 227.477L145.144 228.684C145.464 228.77 145.54 228.807 145.865 229.016L146.541 227.965ZM145.47 227.477L146.568 226.879C145.652 225.198 145.204 224.145 143.41 222.734L142.638 223.717L141.865 224.699C143.195 225.745 143.426 226.338 144.373 228.075L145.47 227.477ZM142.613 223.653L141.486 224.193L147.819 237.402L148.946 236.862L150.073 236.322L143.74 223.112L142.613 223.653ZM148.946 236.862L147.861 237.483C148.385 238.399 149.92 240.972 151.928 244.053L152.976 243.371L154.023 242.688C152.039 239.644 150.529 237.112 150.03 236.241L148.946 236.862ZM152.976 243.371L151.928 244.053C153.919 247.107 157.228 252.333 158.635 254.566L159.693 253.9L160.75 253.234C159.343 251 156.025 245.76 154.023 242.688L152.976 243.371ZM159.693 253.9L158.733 254.701L159.693 255.85L160.652 255.049L161.611 254.247L160.652 253.099L159.693 253.9ZM160.652 255.049L161.744 254.44C159.824 250.992 155.465 243.019 153.333 238.615L152.208 239.159L151.083 239.704C153.25 244.182 157.642 252.213 159.56 255.657L160.652 255.049ZM152.208 239.159L153.333 238.615C151.194 234.195 145.421 221.364 142.794 215.485L141.653 215.995L140.512 216.505C143.131 222.368 148.923 235.241 151.083 239.704L152.208 239.159ZM141.653 215.995H142.903V215.229H141.653H140.403V215.995H141.653ZM141.653 215.229L142.751 214.632L139.105 207.932L138.007 208.529L136.909 209.127L140.555 215.827L141.653 215.229ZM138.007 208.529L136.797 208.844L139.292 218.416L140.502 218.101L141.711 217.786L139.217 208.214L138.007 208.529ZM140.502 218.101L139.333 218.545L141.444 224.097L142.613 223.653L143.781 223.208L141.67 217.657L140.502 218.101ZM125.462 178.721L126.648 178.328C126.569 178.088 126.465 177.588 126.361 176.98C126.262 176.4 126.178 175.808 126.126 175.436L124.888 175.608L123.65 175.779C123.702 176.159 123.791 176.782 123.897 177.4C123.997 177.989 124.128 178.669 124.275 179.114L125.462 178.721ZM124.888 175.608L126.126 175.436C122.509 149.358 131.815 123.984 147.267 103.115L146.262 102.371L145.257 101.627C129.536 122.86 119.918 148.879 123.65 175.779L124.888 175.608ZM134.155 125.185L135.364 125.504C135.363 125.507 135.367 125.492 135.379 125.456C135.391 125.422 135.407 125.378 135.428 125.323C135.471 125.213 135.527 125.075 135.595 124.914C135.732 124.593 135.906 124.206 136.088 123.81C136.451 123.02 136.834 122.222 136.986 121.91L135.861 121.364L134.737 120.817C134.58 121.14 134.189 121.955 133.816 122.766C133.63 123.172 133.445 123.583 133.295 123.936C133.158 124.258 133.013 124.614 132.947 124.866L134.155 125.185ZM135.861 121.364L136.982 121.917C138.669 118.504 140.525 115.176 142.543 111.946L141.483 111.284L140.423 110.621C138.36 113.921 136.464 117.322 134.741 120.81L135.861 121.364ZM141.483 111.284L142.538 111.955C144.219 109.313 146.334 106.377 147.94 103.568L146.855 102.947L145.77 102.327C144.189 105.091 142.237 107.77 140.429 110.613L141.483 111.284ZM132.053 130.246L133.22 130.693C133.884 128.957 134.481 127.291 135.268 125.755L134.155 125.185L133.043 124.615C132.177 126.305 131.519 128.141 130.885 129.8L132.053 130.246ZM130.539 173.58L131.765 173.336C131.294 170.965 131.428 166.737 131.811 162.299C132.188 157.917 132.789 153.51 133.173 150.877L131.936 150.696L130.699 150.516C130.312 153.167 129.703 157.631 129.32 162.084C128.941 166.481 128.763 171.053 129.313 173.823L130.539 173.58ZM128.367 141.893L129.596 142.123C130.178 139.01 131.536 134.977 132.73 131.993L131.57 131.529L130.409 131.064C129.188 134.115 127.764 138.32 127.139 141.663L128.367 141.893ZM138.013 214.503L139.121 213.925C134.338 204.764 128.177 188.706 126.699 178.541L125.462 178.721L124.225 178.901C125.758 189.446 132.05 205.783 136.905 215.082L138.013 214.503ZM129.851 192.283L131.038 191.891C130.385 189.918 129.677 188.141 129.145 186.28L127.943 186.624L126.741 186.968C127.285 188.867 128.081 190.911 128.665 192.676L129.851 192.283ZM127.943 186.624L129.145 186.28C128.927 185.519 128.894 185.202 128.919 184.971C128.943 184.752 129.035 184.478 129.405 183.841L128.324 183.213L127.244 182.585C126.84 183.28 126.519 183.932 126.434 184.697C126.351 185.449 126.514 186.172 126.741 186.968L127.943 186.624ZM136.057 208.645L137.217 208.178L133.303 198.449L132.144 198.915L130.984 199.382L134.897 209.111L136.057 208.645ZM132.144 198.915L133.304 198.45C132.542 196.548 131.748 193.968 131.034 191.879L129.851 192.283L128.669 192.687C129.341 194.654 130.19 197.4 130.983 199.38L132.144 198.915Z" fill="var(--stroke-0, #EBEEF5)" mask="url(#path-1-outside-1_0_6)"/>
</g>
</svg>
